<?xml version="1.0" encoding="UTF-8"?>
<!-- Converted by misc2svg (http://www.network-science.de/tools/misc2svg/) -->
<svg xmlns="http://www.w3.org/2000/svg" xmlns:xlink="http://www.w3.org/1999/xlink" width="461pt" height="389pt" viewBox="0 0 461 389" version="1.1">
<defs>
<clipPath id="clip1">
  <path d="M 0 388.75 L 461.25 388.75 L 461.25 0 L 0 0 L 0 388.75 Z M 0 388.75 "/>
</clipPath>
</defs>
<g id="misc2svg">
<g clip-path="url(#clip1)" clip-rule="nonzero">
<path style=" stroke:none;fill-rule:nonzero;fill:rgb(0%,0%,0%);fill-opacity:1;" d="M 7.527344 102.8125 L 7.527344 81.328125 L 10.378906 81.328125 L 10.378906 90.15625 L 21.53125 90.15625 L 21.53125 81.328125 L 24.382812 81.328125 L 24.382812 102.8125 L 21.53125 102.8125 L 21.53125 92.695312 L 10.378906 92.695312 L 10.378906 102.8125 L 7.527344 102.8125 Z M 7.527344 102.8125 "/>
<path style=" stroke:none;fill-rule:nonzero;fill:rgb(0%,0%,0%);fill-opacity:1;" d="M 28.234375 92.34375 C 28.234375 88.789062 29.191406 86.007812 31.105469 83.984375 C 33.019531 81.96875 35.492188 80.957031 38.527344 80.957031 C 40.507812 80.957031 42.289062 81.4375 43.878906 82.382812 C 45.480469 83.320312 46.699219 84.644531 47.53125 86.347656 C 48.363281 88.042969 48.78125 89.960938 48.78125 92.109375 C 48.78125 94.289062 48.339844 96.230469 47.453125 97.949219 C 46.582031 99.667969 45.335938 100.972656 43.722656 101.855469 C 42.109375 102.742188 40.371094 103.183594 38.507812 103.183594 C 36.488281 103.183594 34.679688 102.695312 33.078125 101.71875 C 31.488281 100.742188 30.285156 99.410156 29.464844 97.714844 C 28.644531 96.023438 28.234375 94.234375 28.234375 92.34375 Z M 31.164062 92.402344 C 31.164062 94.980469 31.859375 97.023438 33.253906 98.515625 C 34.648438 100 36.390625 100.742188 38.488281 100.742188 C 40.636719 100.742188 42.402344 99.996094 43.78125 98.496094 C 45.160156 96.988281 45.851562 94.851562 45.851562 92.089844 C 45.851562 90.347656 45.550781 88.824219 44.953125 87.519531 C 44.367188 86.207031 43.5 85.191406 42.355469 84.472656 C 41.222656 83.757812 39.953125 83.398438 38.546875 83.398438 C 36.527344 83.398438 34.789062 84.09375 33.332031 85.46875 C 31.886719 86.851562 31.164062 89.160156 31.164062 92.402344 Z M 31.164062 92.402344 "/>
<path style=" stroke:none;fill-rule:nonzero;fill:rgb(49.803922%,49.803922%,49.803922%);fill-opacity:1;" d="M 68.132812 98.414062 C 66.96875 95.898438 66.394531 93.316406 66.394531 90.660156 C 66.394531 88.890625 66.628906 87.242188 67.097656 85.71875 C 67.566406 84.1875 68.273438 82.667969 69.226562 81.167969 C 69.851562 80.179688 70.859375 78.890625 72.253906 77.300781 L 73.796875 77.300781 C 72.9375 78.226562 72.023438 79.523438 71.0625 81.1875 C 70.109375 82.84375 69.421875 84.46875 68.992188 86.070312 C 68.5625 87.671875 68.347656 89.289062 68.347656 90.914062 C 68.347656 93.328125 68.765625 95.820312 69.617188 98.414062 L 68.132812 98.414062 Z M 68.132812 98.414062 "/>
<path style=" stroke:none;fill-rule:nonzero;fill:rgb(49.803922%,49.803922%,49.803922%);fill-opacity:1;" d="M 73.574219 88.472656 L 75.683594 88.277344 L 75.664062 88.84375 C 75.664062 89.46875 75.804688 90.046875 76.09375 90.5625 C 76.378906 91.070312 76.847656 91.46875 77.5 91.753906 C 78.164062 92.027344 78.949219 92.164062 79.863281 92.164062 C 81.152344 92.164062 82.132812 91.886719 82.8125 91.324219 C 83.488281 90.765625 83.828125 90.125 83.828125 89.390625 C 83.828125 88.882812 83.644531 88.421875 83.28125 88.003906 C 82.914062 87.601562 81.917969 87.046875 80.292969 86.34375 C 79.015625 85.789062 78.148438 85.363281 77.695312 85.074219 C 76.964844 84.59375 76.425781 84.074219 76.074219 83.511719 C 75.734375 82.953125 75.566406 82.316406 75.566406 81.597656 C 75.566406 80.777344 75.792969 80.035156 76.25 79.371094 C 76.703125 78.695312 77.367188 78.179688 78.242188 77.828125 C 79.125 77.476562 80.117188 77.300781 81.210938 77.300781 C 82.523438 77.300781 83.632812 77.523438 84.53125 77.964844 C 85.429688 78.410156 86.078125 78.996094 86.484375 79.722656 C 86.886719 80.453125 87.089844 81.148438 87.089844 81.8125 C 87.089844 81.890625 87.089844 82.003906 87.089844 82.144531 L 85.019531 82.320312 C 85.019531 81.867188 84.972656 81.507812 84.882812 81.246094 C 84.738281 80.804688 84.511719 80.4375 84.199219 80.132812 C 83.898438 79.820312 83.476562 79.578125 82.929688 79.390625 C 82.394531 79.195312 81.796875 79.097656 81.132812 79.097656 C 79.960938 79.097656 79.046875 79.359375 78.398438 79.878906 C 77.902344 80.285156 77.65625 80.828125 77.65625 81.5 C 77.65625 81.890625 77.753906 82.242188 77.949219 82.554688 C 78.15625 82.867188 78.527344 83.175781 79.0625 83.472656 C 79.453125 83.683594 80.355469 84.109375 81.777344 84.742188 C 82.933594 85.25 83.734375 85.648438 84.179688 85.933594 C 84.765625 86.324219 85.214844 86.804688 85.527344 87.359375 C 85.839844 87.90625 85.996094 88.53125 85.996094 89.234375 C 85.996094 90.109375 85.726562 90.914062 85.195312 91.65625 C 84.671875 92.390625 83.945312 92.953125 83.007812 93.355469 C 82.070312 93.757812 80.996094 93.960938 79.785156 93.960938 C 77.960938 93.960938 76.46875 93.566406 75.3125 92.769531 C 74.164062 91.976562 73.585938 90.542969 73.574219 88.472656 Z M 73.574219 88.472656 "/>
<path style=" stroke:none;fill-rule:nonzero;fill:rgb(49.803922%,49.803922%,49.803922%);fill-opacity:1;" d="M 91.453125 77.300781 C 92.609375 79.828125 93.191406 82.414062 93.191406 85.054688 C 93.191406 86.84375 92.957031 88.492188 92.488281 90.015625 C 92.03125 91.539062 91.328125 93.054688 90.378906 94.546875 C 89.738281 95.546875 88.726562 96.835938 87.351562 98.414062 L 85.808594 98.414062 C 86.65625 97.5 87.550781 96.210938 88.503906 94.546875 C 89.464844 92.882812 90.164062 91.246094 90.59375 89.644531 C 91.023438 88.042969 91.238281 86.429688 91.238281 84.800781 C 91.238281 82.394531 90.8125 79.894531 89.96875 77.300781 L 91.453125 77.300781 Z M 91.453125 77.300781 "/>
<path style=" stroke:none;fill-rule:nonzero;fill:rgb(49.803922%,49.803922%,49.803922%);fill-opacity:1;" d="M 68.132812 98.414062 C 66.96875 95.898438 66.394531 93.316406 66.394531 90.660156 C 66.394531 88.890625 66.628906 87.242188 67.097656 85.71875 C 67.566406 84.1875 68.273438 82.667969 69.226562 81.167969 C 69.851562 80.179688 70.859375 78.890625 72.253906 77.300781 L 73.796875 77.300781 C 72.9375 78.226562 72.023438 79.523438 71.0625 81.1875 C 70.109375 82.84375 69.421875 84.46875 68.992188 86.070312 C 68.5625 87.671875 68.347656 89.289062 68.347656 90.914062 C 68.347656 93.328125 68.765625 95.820312 69.617188 98.414062 L 68.132812 98.414062 Z M 68.132812 98.414062 "/>
<path style=" stroke:none;fill-rule:nonzero;fill:rgb(49.803922%,49.803922%,49.803922%);fill-opacity:1;" d="M 73.574219 88.472656 L 75.683594 88.277344 L 75.664062 88.84375 C 75.664062 89.46875 75.804688 90.046875 76.09375 90.5625 C 76.378906 91.070312 76.847656 91.46875 77.5 91.753906 C 78.164062 92.027344 78.949219 92.164062 79.863281 92.164062 C 81.152344 92.164062 82.132812 91.886719 82.8125 91.324219 C 83.488281 90.765625 83.828125 90.125 83.828125 89.390625 C 83.828125 88.882812 83.644531 88.421875 83.28125 88.003906 C 82.914062 87.601562 81.917969 87.046875 80.292969 86.34375 C 79.015625 85.789062 78.148438 85.363281 77.695312 85.074219 C 76.964844 84.59375 76.425781 84.074219 76.074219 83.511719 C 75.734375 82.953125 75.566406 82.316406 75.566406 81.597656 C 75.566406 80.777344 75.792969 80.035156 76.25 79.371094 C 76.703125 78.695312 77.367188 78.179688 78.242188 77.828125 C 79.125 77.476562 80.117188 77.300781 81.210938 77.300781 C 82.523438 77.300781 83.632812 77.523438 84.53125 77.964844 C 85.429688 78.410156 86.078125 78.996094 86.484375 79.722656 C 86.886719 80.453125 87.089844 81.148438 87.089844 81.8125 C 87.089844 81.890625 87.089844 82.003906 87.089844 82.144531 L 85.019531 82.320312 C 85.019531 81.867188 84.972656 81.507812 84.882812 81.246094 C 84.738281 80.804688 84.511719 80.4375 84.199219 80.132812 C 83.898438 79.820312 83.476562 79.578125 82.929688 79.390625 C 82.394531 79.195312 81.796875 79.097656 81.132812 79.097656 C 79.960938 79.097656 79.046875 79.359375 78.398438 79.878906 C 77.902344 80.285156 77.65625 80.828125 77.65625 81.5 C 77.65625 81.890625 77.753906 82.242188 77.949219 82.554688 C 78.15625 82.867188 78.527344 83.175781 79.0625 83.472656 C 79.453125 83.683594 80.355469 84.109375 81.777344 84.742188 C 82.933594 85.25 83.734375 85.648438 84.179688 85.933594 C 84.765625 86.324219 85.214844 86.804688 85.527344 87.359375 C 85.839844 87.90625 85.996094 88.53125 85.996094 89.234375 C 85.996094 90.109375 85.726562 90.914062 85.195312 91.65625 C 84.671875 92.390625 83.945312 92.953125 83.007812 93.355469 C 82.070312 93.757812 80.996094 93.960938 79.785156 93.960938 C 77.960938 93.960938 76.46875 93.566406 75.3125 92.769531 C 74.164062 91.976562 73.585938 90.542969 73.574219 88.472656 Z M 73.574219 88.472656 "/>
<path style=" stroke:none;fill-rule:nonzero;fill:rgb(49.803922%,49.803922%,49.803922%);fill-opacity:1;" d="M 91.453125 77.300781 C 92.609375 79.828125 93.191406 82.414062 93.191406 85.054688 C 93.191406 86.84375 92.957031 88.492188 92.488281 90.015625 C 92.03125 91.539062 91.328125 93.054688 90.378906 94.546875 C 89.738281 95.546875 88.726562 96.835938 87.351562 98.414062 L 85.808594 98.414062 C 86.65625 97.5 87.550781 96.210938 88.503906 94.546875 C 89.464844 92.882812 90.164062 91.246094 90.59375 89.644531 C 91.023438 88.042969 91.238281 86.429688 91.238281 84.800781 C 91.238281 82.394531 90.8125 79.894531 89.96875 77.300781 L 91.453125 77.300781 Z M 91.453125 77.300781 "/>
<path style=" stroke:none;fill-rule:nonzero;fill:rgb(0%,0%,0%);fill-opacity:1;" d="M 80.25 66.5 L 81.375 67.0625 L 81.375 68.3125 L 50.625 86.0625 L 49.5625 84.1875 L 80.25 66.5 Z M 80.25 66.5 "/>
<path style=" stroke:none;fill-rule:nonzero;fill:rgb(0%,0%,0%);fill-opacity:1;" d="M 124.375 90.625 L 124.375 93.125 L 81.375 68.3125 L 81.375 67.0625 L 82.5 66.5 L 124.375 90.625 Z M 124.375 90.625 "/>
<path style=" stroke:none;fill-rule:nonzero;fill:rgb(0%,0%,0%);fill-opacity:1;" d="M 157.132812 67.53125 C 157.132812 63.976562 158.089844 61.195312 160.003906 59.171875 C 161.917969 57.15625 164.390625 56.144531 167.425781 56.144531 C 169.402344 56.144531 171.1875 56.625 172.777344 57.570312 C 174.378906 58.507812 175.59375 59.832031 176.429688 61.535156 C 177.257812 63.230469 177.679688 65.148438 177.679688 67.296875 C 177.679688 69.476562 177.234375 71.417969 176.351562 73.136719 C 175.476562 74.855469 174.234375 76.160156 172.621094 77.042969 C 171.003906 77.929688 169.265625 78.371094 167.40625 78.371094 C 165.382812 78.371094 163.578125 77.882812 161.976562 76.90625 C 160.382812 75.929688 159.183594 74.597656 158.363281 72.902344 C 157.542969 71.210938 157.132812 69.421875 157.132812 67.53125 Z M 160.0625 67.589844 C 160.0625 70.167969 160.757812 72.210938 162.152344 73.703125 C 163.542969 75.1875 165.289062 75.929688 167.386719 75.929688 C 169.535156 75.929688 171.296875 75.183594 172.679688 73.683594 C 174.054688 72.175781 174.75 70.039062 174.75 67.277344 C 174.75 65.535156 174.445312 64.011719 173.851562 62.707031 C 173.265625 61.394531 172.398438 60.378906 171.253906 59.660156 C 170.121094 58.945312 168.851562 58.585938 167.445312 58.585938 C 165.421875 58.585938 163.6875 59.28125 162.230469 60.65625 C 160.785156 62.039062 160.0625 64.347656 160.0625 67.589844 Z M 160.0625 67.589844 "/>
<path style=" stroke:none;fill-rule:nonzero;fill:rgb(0%,0%,0%);fill-opacity:1;" d="M 155 72.9375 L 156.0625 74.8125 L 124.375 93.125 L 124.375 90.625 L 155 72.9375 Z M 155 72.9375 "/>
<path style=" stroke:none;fill-rule:nonzero;fill:rgb(49.803922%,49.803922%,49.803922%);fill-opacity:1;" d="M 199.507812 83.414062 C 198.34375 80.898438 197.769531 78.316406 197.769531 75.660156 C 197.769531 73.890625 198.003906 72.242188 198.472656 70.71875 C 198.941406 69.1875 199.648438 67.667969 200.601562 66.167969 C 201.226562 65.179688 202.234375 63.890625 203.628906 62.300781 L 205.171875 62.300781 C 204.3125 63.226562 203.398438 64.523438 202.4375 66.1875 C 201.484375 67.84375 200.796875 69.46875 200.367188 71.070312 C 199.9375 72.671875 199.722656 74.289062 199.722656 75.914062 C 199.722656 78.328125 200.140625 80.820312 200.992188 83.414062 L 199.507812 83.414062 Z M 199.507812 83.414062 "/>
<path style=" stroke:none;fill-rule:nonzero;fill:rgb(49.803922%,49.803922%,49.803922%);fill-opacity:1;" d="M 204.949219 73.472656 L 207.058594 73.277344 L 207.039062 73.84375 C 207.039062 74.46875 207.179688 75.046875 207.46875 75.5625 C 207.753906 76.070312 208.222656 76.46875 208.875 76.753906 C 209.539062 77.027344 210.324219 77.164062 211.238281 77.164062 C 212.527344 77.164062 213.507812 76.886719 214.1875 76.324219 C 214.863281 75.765625 215.203125 75.125 215.203125 74.390625 C 215.203125 73.882812 215.019531 73.421875 214.65625 73.003906 C 214.289062 72.601562 213.292969 72.046875 211.667969 71.34375 C 210.390625 70.789062 209.523438 70.363281 209.070312 70.074219 C 208.339844 69.59375 207.800781 69.074219 207.449219 68.511719 C 207.109375 67.953125 206.941406 67.316406 206.941406 66.597656 C 206.941406 65.777344 207.167969 65.035156 207.625 64.371094 C 208.078125 63.695312 208.742188 63.179688 209.617188 62.828125 C 210.5 62.476562 211.492188 62.300781 212.585938 62.300781 C 213.898438 62.300781 215.007812 62.523438 215.90625 62.964844 C 216.804688 63.410156 217.453125 63.996094 217.859375 64.722656 C 218.261719 65.453125 218.464844 66.148438 218.464844 66.8125 C 218.464844 66.890625 218.464844 67.003906 218.464844 67.144531 L 216.394531 67.320312 C 216.394531 66.867188 216.347656 66.507812 216.257812 66.246094 C 216.113281 65.804688 215.886719 65.4375 215.574219 65.132812 C 215.273438 64.820312 214.851562 64.578125 214.304688 64.390625 C 213.769531 64.195312 213.171875 64.097656 212.507812 64.097656 C 211.335938 64.097656 210.421875 64.359375 209.773438 64.878906 C 209.277344 65.285156 209.03125 65.828125 209.03125 66.5 C 209.03125 66.890625 209.128906 67.242188 209.324219 67.554688 C 209.53125 67.867188 209.902344 68.175781 210.4375 68.472656 C 210.828125 68.683594 211.730469 69.109375 213.152344 69.742188 C 214.308594 70.25 215.109375 70.648438 215.554688 70.933594 C 216.140625 71.324219 216.589844 71.804688 216.902344 72.359375 C 217.214844 72.90625 217.371094 73.53125 217.371094 74.234375 C 217.371094 75.109375 217.101562 75.914062 216.570312 76.65625 C 216.046875 77.390625 215.320312 77.953125 214.382812 78.355469 C 213.445312 78.757812 212.371094 78.960938 211.160156 78.960938 C 209.335938 78.960938 207.84375 78.566406 206.6875 77.769531 C 205.539062 76.976562 204.960938 75.542969 204.949219 73.472656 Z M 204.949219 73.472656 "/>
<path style=" stroke:none;fill-rule:nonzero;fill:rgb(49.803922%,49.803922%,49.803922%);fill-opacity:1;" d="M 222.828125 62.300781 C 223.984375 64.828125 224.566406 67.414062 224.566406 70.054688 C 224.566406 71.84375 224.332031 73.492188 223.863281 75.015625 C 223.40625 76.539062 222.703125 78.054688 221.753906 79.546875 C 221.113281 80.546875 220.101562 81.835938 218.726562 83.414062 L 217.183594 83.414062 C 218.03125 82.5 218.925781 81.210938 219.878906 79.546875 C 220.839844 77.882812 221.539062 76.246094 221.96875 74.644531 C 222.398438 73.042969 222.613281 71.429688 222.613281 69.800781 C 222.613281 67.394531 222.1875 64.894531 221.34375 62.300781 L 222.828125 62.300781 Z M 222.828125 62.300781 "/>
<path style=" stroke:none;fill-rule:nonzero;fill:rgb(49.803922%,49.803922%,49.803922%);fill-opacity:1;" d="M 199.507812 83.414062 C 198.34375 80.898438 197.769531 78.316406 197.769531 75.660156 C 197.769531 73.890625 198.003906 72.242188 198.472656 70.71875 C 198.941406 69.1875 199.648438 67.667969 200.601562 66.167969 C 201.226562 65.179688 202.234375 63.890625 203.628906 62.300781 L 205.171875 62.300781 C 204.3125 63.226562 203.398438 64.523438 202.4375 66.1875 C 201.484375 67.84375 200.796875 69.46875 200.367188 71.070312 C 199.9375 72.671875 199.722656 74.289062 199.722656 75.914062 C 199.722656 78.328125 200.140625 80.820312 200.992188 83.414062 L 199.507812 83.414062 Z M 199.507812 83.414062 "/>
<path style=" stroke:none;fill-rule:nonzero;fill:rgb(49.803922%,49.803922%,49.803922%);fill-opacity:1;" d="M 204.949219 73.472656 L 207.058594 73.277344 L 207.039062 73.84375 C 207.039062 74.46875 207.179688 75.046875 207.46875 75.5625 C 207.753906 76.070312 208.222656 76.46875 208.875 76.753906 C 209.539062 77.027344 210.324219 77.164062 211.238281 77.164062 C 212.527344 77.164062 213.507812 76.886719 214.1875 76.324219 C 214.863281 75.765625 215.203125 75.125 215.203125 74.390625 C 215.203125 73.882812 215.019531 73.421875 214.65625 73.003906 C 214.289062 72.601562 213.292969 72.046875 211.667969 71.34375 C 210.390625 70.789062 209.523438 70.363281 209.070312 70.074219 C 208.339844 69.59375 207.800781 69.074219 207.449219 68.511719 C 207.109375 67.953125 206.941406 67.316406 206.941406 66.597656 C 206.941406 65.777344 207.167969 65.035156 207.625 64.371094 C 208.078125 63.695312 208.742188 63.179688 209.617188 62.828125 C 210.5 62.476562 211.492188 62.300781 212.585938 62.300781 C 213.898438 62.300781 215.007812 62.523438 215.90625 62.964844 C 216.804688 63.410156 217.453125 63.996094 217.859375 64.722656 C 218.261719 65.453125 218.464844 66.148438 218.464844 66.8125 C 218.464844 66.890625 218.464844 67.003906 218.464844 67.144531 L 216.394531 67.320312 C 216.394531 66.867188 216.347656 66.507812 216.257812 66.246094 C 216.113281 65.804688 215.886719 65.4375 215.574219 65.132812 C 215.273438 64.820312 214.851562 64.578125 214.304688 64.390625 C 213.769531 64.195312 213.171875 64.097656 212.507812 64.097656 C 211.335938 64.097656 210.421875 64.359375 209.773438 64.878906 C 209.277344 65.285156 209.03125 65.828125 209.03125 66.5 C 209.03125 66.890625 209.128906 67.242188 209.324219 67.554688 C 209.53125 67.867188 209.902344 68.175781 210.4375 68.472656 C 210.828125 68.683594 211.730469 69.109375 213.152344 69.742188 C 214.308594 70.25 215.109375 70.648438 215.554688 70.933594 C 216.140625 71.324219 216.589844 71.804688 216.902344 72.359375 C 217.214844 72.90625 217.371094 73.53125 217.371094 74.234375 C 217.371094 75.109375 217.101562 75.914062 216.570312 76.65625 C 216.046875 77.390625 215.320312 77.953125 214.382812 78.355469 C 213.445312 78.757812 212.371094 78.960938 211.160156 78.960938 C 209.335938 78.960938 207.84375 78.566406 206.6875 77.769531 C 205.539062 76.976562 204.960938 75.542969 204.949219 73.472656 Z M 204.949219 73.472656 "/>
<path style=" stroke:none;fill-rule:nonzero;fill:rgb(49.803922%,49.803922%,49.803922%);fill-opacity:1;" d="M 222.828125 62.300781 C 223.984375 64.828125 224.566406 67.414062 224.566406 70.054688 C 224.566406 71.84375 224.332031 73.492188 223.863281 75.015625 C 223.40625 76.539062 222.703125 78.054688 221.753906 79.546875 C 221.113281 80.546875 220.101562 81.835938 218.726562 83.414062 L 217.183594 83.414062 C 218.03125 82.5 218.925781 81.210938 219.878906 79.546875 C 220.839844 77.882812 221.539062 76.246094 221.96875 74.644531 C 222.398438 73.042969 222.613281 71.429688 222.613281 69.800781 C 222.613281 67.394531 222.1875 64.894531 221.34375 62.300781 L 222.828125 62.300781 Z M 222.828125 62.300781 "/>
<path style=" stroke:none;fill-rule:nonzero;fill:rgb(0%,0%,0%);fill-opacity:1;" d="M 210.3125 90.625 L 210.3125 93.125 L 178.625 74.8125 L 179.6875 73 L 210.3125 90.625 Z M 210.3125 90.625 "/>
<path style=" stroke:none;fill-rule:nonzero;fill:rgb(0%,0%,0%);fill-opacity:1;" d="M 253.25 65.8125 L 253.25 68.3125 L 210.3125 93.125 L 210.3125 90.625 L 253.25 65.8125 Z M 253.25 65.8125 "/>
<path style=" stroke:none;fill-rule:nonzero;fill:rgb(0%,0%,0%);fill-opacity:1;" d="M 286.007812 92.34375 C 286.007812 88.789062 286.964844 86.007812 288.878906 83.984375 C 290.792969 81.96875 293.265625 80.957031 296.300781 80.957031 C 298.277344 80.957031 300.0625 81.4375 301.652344 82.382812 C 303.253906 83.320312 304.46875 84.644531 305.304688 86.347656 C 306.132812 88.042969 306.554688 89.960938 306.554688 92.109375 C 306.554688 94.289062 306.109375 96.230469 305.226562 97.949219 C 304.351562 99.667969 303.109375 100.972656 301.496094 101.855469 C 299.878906 102.742188 298.140625 103.183594 296.28125 103.183594 C 294.257812 103.183594 292.453125 102.695312 290.851562 101.71875 C 289.257812 100.742188 288.058594 99.410156 287.238281 97.714844 C 286.417969 96.023438 286.007812 94.234375 286.007812 92.34375 Z M 288.9375 92.402344 C 288.9375 94.980469 289.632812 97.023438 291.027344 98.515625 C 292.417969 100 294.164062 100.742188 296.261719 100.742188 C 298.410156 100.742188 300.171875 99.996094 301.554688 98.496094 C 302.929688 96.988281 303.625 94.851562 303.625 92.089844 C 303.625 90.347656 303.320312 88.824219 302.726562 87.519531 C 302.140625 86.207031 301.273438 85.191406 300.128906 84.472656 C 298.996094 83.757812 297.726562 83.398438 296.320312 83.398438 C 294.296875 83.398438 292.5625 84.09375 291.105469 85.46875 C 289.660156 86.851562 288.9375 89.160156 288.9375 92.402344 Z M 288.9375 92.402344 "/>
<path style=" stroke:none;fill-rule:nonzero;fill:rgb(0%,0%,0%);fill-opacity:1;" d="M 285.125 84.25 L 284.0625 86.0625 L 253.25 68.3125 L 253.25 65.8125 L 285.125 84.25 Z M 285.125 84.25 "/>
<path style=" stroke:none;fill-rule:nonzero;fill:rgb(49.803922%,49.803922%,49.803922%);fill-opacity:1;" d="M 327.195312 97.789062 C 326.03125 95.273438 325.457031 92.691406 325.457031 90.035156 C 325.457031 88.265625 325.691406 86.617188 326.160156 85.09375 C 326.628906 83.5625 327.335938 82.042969 328.289062 80.542969 C 328.914062 79.554688 329.921875 78.265625 331.316406 76.675781 L 332.859375 76.675781 C 332 77.601562 331.085938 78.898438 330.125 80.5625 C 329.171875 82.21875 328.484375 83.84375 328.054688 85.445312 C 327.625 87.046875 327.410156 88.664062 327.410156 90.289062 C 327.410156 92.703125 327.828125 95.195312 328.679688 97.789062 L 327.195312 97.789062 Z M 327.195312 97.789062 "/>
<path style=" stroke:none;fill-rule:nonzero;fill:rgb(49.803922%,49.803922%,49.803922%);fill-opacity:1;" d="M 332.636719 87.847656 L 334.746094 87.652344 L 334.726562 88.21875 C 334.726562 88.84375 334.867188 89.421875 335.15625 89.9375 C 335.441406 90.445312 335.910156 90.84375 336.5625 91.128906 C 337.226562 91.402344 338.011719 91.539062 338.925781 91.539062 C 340.214844 91.539062 341.195312 91.261719 341.875 90.699219 C 342.550781 90.140625 342.890625 89.5 342.890625 88.765625 C 342.890625 88.257812 342.707031 87.796875 342.34375 87.378906 C 341.976562 86.976562 340.980469 86.421875 339.355469 85.71875 C 338.078125 85.164062 337.210938 84.738281 336.757812 84.449219 C 336.027344 83.96875 335.488281 83.449219 335.136719 82.886719 C 334.796875 82.328125 334.628906 81.691406 334.628906 80.972656 C 334.628906 80.152344 334.855469 79.410156 335.3125 78.746094 C 335.765625 78.070312 336.429688 77.554688 337.304688 77.203125 C 338.1875 76.851562 339.179688 76.675781 340.273438 76.675781 C 341.585938 76.675781 342.695312 76.898438 343.59375 77.339844 C 344.492188 77.785156 345.140625 78.371094 345.546875 79.097656 C 345.949219 79.828125 346.152344 80.523438 346.152344 81.1875 C 346.152344 81.265625 346.152344 81.378906 346.152344 81.519531 L 344.082031 81.695312 C 344.082031 81.242188 344.035156 80.882812 343.945312 80.621094 C 343.800781 80.179688 343.574219 79.8125 343.261719 79.507812 C 342.960938 79.195312 342.539062 78.953125 341.992188 78.765625 C 341.457031 78.570312 340.859375 78.472656 340.195312 78.472656 C 339.023438 78.472656 338.109375 78.734375 337.460938 79.253906 C 336.964844 79.660156 336.71875 80.203125 336.71875 80.875 C 336.71875 81.265625 336.816406 81.617188 337.011719 81.929688 C 337.21875 82.242188 337.589844 82.550781 338.125 82.847656 C 338.515625 83.058594 339.417969 83.484375 340.839844 84.117188 C 341.996094 84.625 342.796875 85.023438 343.242188 85.308594 C 343.828125 85.699219 344.277344 86.179688 344.589844 86.734375 C 344.902344 87.28125 345.058594 87.90625 345.058594 88.609375 C 345.058594 89.484375 344.789062 90.289062 344.257812 91.03125 C 343.734375 91.765625 343.007812 92.328125 342.070312 92.730469 C 341.132812 93.132812 340.058594 93.335938 338.847656 93.335938 C 337.023438 93.335938 335.53125 92.941406 334.375 92.144531 C 333.226562 91.351562 332.648438 89.917969 332.636719 87.847656 Z M 332.636719 87.847656 "/>
<path style=" stroke:none;fill-rule:nonzero;fill:rgb(49.803922%,49.803922%,49.803922%);fill-opacity:1;" d="M 350.515625 76.675781 C 351.671875 79.203125 352.253906 81.789062 352.253906 84.429688 C 352.253906 86.21875 352.019531 87.867188 351.550781 89.390625 C 351.09375 90.914062 350.390625 92.429688 349.441406 93.921875 C 348.800781 94.921875 347.789062 96.210938 346.414062 97.789062 L 344.871094 97.789062 C 345.71875 96.875 346.613281 95.585938 347.566406 93.921875 C 348.527344 92.257812 349.226562 90.621094 349.65625 89.019531 C 350.085938 87.417969 350.300781 85.804688 350.300781 84.175781 C 350.300781 81.769531 349.875 79.269531 349.03125 76.675781 L 350.515625 76.675781 Z M 350.515625 76.675781 "/>
<path style=" stroke:none;fill-rule:nonzero;fill:rgb(49.803922%,49.803922%,49.803922%);fill-opacity:1;" d="M 327.195312 97.789062 C 326.03125 95.273438 325.457031 92.691406 325.457031 90.035156 C 325.457031 88.265625 325.691406 86.617188 326.160156 85.09375 C 326.628906 83.5625 327.335938 82.042969 328.289062 80.542969 C 328.914062 79.554688 329.921875 78.265625 331.316406 76.675781 L 332.859375 76.675781 C 332 77.601562 331.085938 78.898438 330.125 80.5625 C 329.171875 82.21875 328.484375 83.84375 328.054688 85.445312 C 327.625 87.046875 327.410156 88.664062 327.410156 90.289062 C 327.410156 92.703125 327.828125 95.195312 328.679688 97.789062 L 327.195312 97.789062 Z M 327.195312 97.789062 "/>
<path style=" stroke:none;fill-rule:nonzero;fill:rgb(49.803922%,49.803922%,49.803922%);fill-opacity:1;" d="M 332.636719 87.847656 L 334.746094 87.652344 L 334.726562 88.21875 C 334.726562 88.84375 334.867188 89.421875 335.15625 89.9375 C 335.441406 90.445312 335.910156 90.84375 336.5625 91.128906 C 337.226562 91.402344 338.011719 91.539062 338.925781 91.539062 C 340.214844 91.539062 341.195312 91.261719 341.875 90.699219 C 342.550781 90.140625 342.890625 89.5 342.890625 88.765625 C 342.890625 88.257812 342.707031 87.796875 342.34375 87.378906 C 341.976562 86.976562 340.980469 86.421875 339.355469 85.71875 C 338.078125 85.164062 337.210938 84.738281 336.757812 84.449219 C 336.027344 83.96875 335.488281 83.449219 335.136719 82.886719 C 334.796875 82.328125 334.628906 81.691406 334.628906 80.972656 C 334.628906 80.152344 334.855469 79.410156 335.3125 78.746094 C 335.765625 78.070312 336.429688 77.554688 337.304688 77.203125 C 338.1875 76.851562 339.179688 76.675781 340.273438 76.675781 C 341.585938 76.675781 342.695312 76.898438 343.59375 77.339844 C 344.492188 77.785156 345.140625 78.371094 345.546875 79.097656 C 345.949219 79.828125 346.152344 80.523438 346.152344 81.1875 C 346.152344 81.265625 346.152344 81.378906 346.152344 81.519531 L 344.082031 81.695312 C 344.082031 81.242188 344.035156 80.882812 343.945312 80.621094 C 343.800781 80.179688 343.574219 79.8125 343.261719 79.507812 C 342.960938 79.195312 342.539062 78.953125 341.992188 78.765625 C 341.457031 78.570312 340.859375 78.472656 340.195312 78.472656 C 339.023438 78.472656 338.109375 78.734375 337.460938 79.253906 C 336.964844 79.660156 336.71875 80.203125 336.71875 80.875 C 336.71875 81.265625 336.816406 81.617188 337.011719 81.929688 C 337.21875 82.242188 337.589844 82.550781 338.125 82.847656 C 338.515625 83.058594 339.417969 83.484375 340.839844 84.117188 C 341.996094 84.625 342.796875 85.023438 343.242188 85.308594 C 343.828125 85.699219 344.277344 86.179688 344.589844 86.734375 C 344.902344 87.28125 345.058594 87.90625 345.058594 88.609375 C 345.058594 89.484375 344.789062 90.289062 344.257812 91.03125 C 343.734375 91.765625 343.007812 92.328125 342.070312 92.730469 C 341.132812 93.132812 340.058594 93.335938 338.847656 93.335938 C 337.023438 93.335938 335.53125 92.941406 334.375 92.144531 C 333.226562 91.351562 332.648438 89.917969 332.636719 87.847656 Z M 332.636719 87.847656 "/>
<path style=" stroke:none;fill-rule:nonzero;fill:rgb(49.803922%,49.803922%,49.803922%);fill-opacity:1;" d="M 350.515625 76.675781 C 351.671875 79.203125 352.253906 81.789062 352.253906 84.429688 C 352.253906 86.21875 352.019531 87.867188 351.550781 89.390625 C 351.09375 90.914062 350.390625 92.429688 349.441406 93.921875 C 348.800781 94.921875 347.789062 96.210938 346.414062 97.789062 L 344.871094 97.789062 C 345.71875 96.875 346.613281 95.585938 347.566406 93.921875 C 348.527344 92.257812 349.226562 90.621094 349.65625 89.019531 C 350.085938 87.417969 350.300781 85.804688 350.300781 84.175781 C 350.300781 81.769531 349.875 79.269531 349.03125 76.675781 L 350.515625 76.675781 Z M 350.515625 76.675781 "/>
<path style=" stroke:none;fill-rule:nonzero;fill:rgb(0%,0%,0%);fill-opacity:1;" d="M 338.0625 66.5 L 339.1875 67.0625 L 339.1875 68.3125 L 308.4375 86.0625 L 307.375 84.25 L 338.0625 66.5 Z M 338.0625 66.5 "/>
<path style=" stroke:none;fill-rule:nonzero;fill:rgb(0%,0%,0%);fill-opacity:1;" d="M 382.1875 90.625 L 382.1875 93.125 L 339.1875 68.3125 L 339.1875 67.0625 L 340.3125 66.5 L 382.1875 90.625 Z M 382.1875 90.625 "/>
<path style=" stroke:none;fill-rule:nonzero;fill:rgb(0%,0%,0%);fill-opacity:1;" d="M 414.945312 67.53125 C 414.945312 63.976562 415.902344 61.195312 417.816406 59.171875 C 419.730469 57.15625 422.203125 56.144531 425.238281 56.144531 C 427.214844 56.144531 429 56.625 430.589844 57.570312 C 432.191406 58.507812 433.40625 59.832031 434.242188 61.535156 C 435.070312 63.230469 435.492188 65.148438 435.492188 67.296875 C 435.492188 69.476562 435.046875 71.417969 434.164062 73.136719 C 433.289062 74.855469 432.046875 76.160156 430.433594 77.042969 C 428.816406 77.929688 427.078125 78.371094 425.21875 78.371094 C 423.195312 78.371094 421.390625 77.882812 419.789062 76.90625 C 418.195312 75.929688 416.996094 74.597656 416.175781 72.902344 C 415.355469 71.210938 414.945312 69.421875 414.945312 67.53125 Z M 417.875 67.589844 C 417.875 70.167969 418.570312 72.210938 419.964844 73.703125 C 421.355469 75.1875 423.101562 75.929688 425.199219 75.929688 C 427.347656 75.929688 429.109375 75.183594 430.492188 73.683594 C 431.867188 72.175781 432.5625 70.039062 432.5625 67.277344 C 432.5625 65.535156 432.257812 64.011719 431.664062 62.707031 C 431.078125 61.394531 430.210938 60.378906 429.066406 59.660156 C 427.933594 58.945312 426.664062 58.585938 425.257812 58.585938 C 423.234375 58.585938 421.5 59.28125 420.042969 60.65625 C 418.597656 62.039062 417.875 64.347656 417.875 67.589844 Z M 417.875 67.589844 "/>
<path style=" stroke:none;fill-rule:nonzero;fill:rgb(0%,0%,0%);fill-opacity:1;" d="M 439.238281 78 L 439.238281 56.515625 L 442.089844 56.515625 L 442.089844 65.34375 L 453.242188 65.34375 L 453.242188 56.515625 L 456.09375 56.515625 L 456.09375 78 L 453.242188 78 L 453.242188 67.882812 L 442.089844 67.882812 L 442.089844 78 L 439.238281 78 Z M 439.238281 78 "/>
<path style=" stroke:none;fill-rule:nonzero;fill:rgb(0%,0%,0%);fill-opacity:1;" d="M 412.8125 72.9375 L 413.875 74.8125 L 382.1875 93.125 L 382.1875 90.625 L 412.8125 72.9375 Z M 412.8125 72.9375 "/>
<path style=" stroke:none;fill-rule:nonzero;fill:rgb(0%,0%,0%);fill-opacity:1;" d="M 88.011719 20.835938 L 90.863281 21.558594 C 90.261719 23.890625 89.1875 25.675781 87.640625 26.910156 C 86.085938 28.136719 84.195312 28.746094 81.957031 28.746094 C 79.652344 28.746094 77.765625 28.277344 76.3125 27.339844 C 74.867188 26.390625 73.765625 25.023438 73.011719 23.238281 C 72.253906 21.441406 71.878906 19.523438 71.878906 17.476562 C 71.878906 15.242188 72.296875 13.289062 73.148438 11.617188 C 74.007812 9.953125 75.222656 8.6875 76.800781 7.828125 C 78.375 6.96875 80.109375 6.539062 82.015625 6.539062 C 84.164062 6.539062 85.964844 7.085938 87.425781 8.179688 C 88.894531 9.273438 89.914062 10.8125 90.492188 12.789062 L 87.699219 13.453125 C 87.191406 11.890625 86.460938 10.753906 85.511719 10.035156 C 84.574219 9.320312 83.386719 8.960938 81.957031 8.960938 C 80.300781 8.960938 78.921875 9.359375 77.816406 10.152344 C 76.707031 10.949219 75.925781 12.007812 75.472656 13.335938 C 75.027344 14.664062 74.808594 16.039062 74.808594 17.457031 C 74.808594 19.28125 75.066406 20.875 75.589844 22.242188 C 76.121094 23.609375 76.945312 24.632812 78.070312 25.308594 C 79.203125 25.972656 80.417969 26.304688 81.722656 26.304688 C 83.324219 26.304688 84.671875 25.851562 85.765625 24.9375 C 86.867188 24.015625 87.621094 22.648438 88.011719 20.835938 Z M 88.011719 20.835938 "/>
<path style=" stroke:none;fill-rule:nonzero;fill:rgb(0%,0%,0%);fill-opacity:1;" d="M 94.441406 28.375 L 94.441406 6.890625 L 97.292969 6.890625 L 97.292969 15.71875 L 108.445312 15.71875 L 108.445312 6.890625 L 111.296875 6.890625 L 111.296875 28.375 L 108.445312 28.375 L 108.445312 18.257812 L 97.292969 18.257812 L 97.292969 28.375 L 94.441406 28.375 Z M 94.441406 28.375 "/>
<path style=" stroke:none;fill-rule:nonzero;fill:rgb(0%,0%,0%);fill-opacity:1;" d="M 114.707031 30.472656 L 116.699219 30.21875 C 116.917969 31.34375 117.304688 32.148438 117.851562 32.640625 C 118.398438 33.140625 119.0625 33.382812 119.84375 33.382812 C 120.78125 33.382812 121.566406 33.066406 122.207031 32.425781 C 122.839844 31.777344 123.164062 30.976562 123.164062 30.023438 C 123.164062 29.117188 122.859375 28.363281 122.265625 27.777344 C 121.679688 27.183594 120.925781 26.878906 120.019531 26.878906 C 119.636719 26.878906 119.167969 26.957031 118.613281 27.113281 L 118.828125 25.375 C 118.953125 25.390625 119.066406 25.394531 119.160156 25.394531 C 119.988281 25.394531 120.746094 25.175781 121.425781 24.730469 C 122.097656 24.292969 122.441406 23.613281 122.441406 22.699219 C 122.441406 21.972656 122.191406 21.371094 121.699219 20.902344 C 121.199219 20.425781 120.570312 20.179688 119.804688 20.179688 C 119.03125 20.179688 118.386719 20.425781 117.871094 20.902344 C 117.363281 21.386719 117.035156 22.113281 116.894531 23.089844 L 114.921875 22.738281 C 115.15625 21.410156 115.703125 20.386719 116.5625 19.652344 C 117.421875 18.925781 118.484375 18.558594 119.765625 18.558594 C 120.632812 18.558594 121.445312 18.75 122.1875 19.125 C 122.929688 19.507812 123.496094 20.019531 123.886719 20.667969 C 124.277344 21.324219 124.472656 22.011719 124.472656 22.738281 C 124.472656 23.441406 124.28125 24.082031 123.90625 24.652344 C 123.539062 25.214844 122.988281 25.664062 122.246094 26 C 123.191406 26.226562 123.929688 26.683594 124.453125 27.386719 C 124.984375 28.082031 125.253906 28.941406 125.253906 29.964844 C 125.253906 31.371094 124.734375 32.574219 123.710938 33.558594 C 122.695312 34.535156 121.40625 35.023438 119.84375 35.023438 C 118.421875 35.023438 117.246094 34.605469 116.308594 33.753906 C 115.378906 32.910156 114.847656 31.816406 114.707031 30.472656 Z M 114.707031 30.472656 "/>
<path style=" stroke:none;fill-rule:nonzero;fill:rgb(0%,0%,0%);fill-opacity:1;" d="M 76.625 31.625 L 86.1875 31.625 L 82.5 66.5 L 81.375 67.0625 L 80.25 66.5 L 76.625 31.625 Z M 76.625 31.625 "/>
<path style=" stroke:none;fill-rule:nonzero;fill:rgb(0%,0%,0%);fill-opacity:1;" d="M 114.132812 141.96875 C 114.132812 138.414062 115.089844 135.632812 117.003906 133.609375 C 118.917969 131.59375 121.390625 130.582031 124.425781 130.582031 C 126.402344 130.582031 128.1875 131.0625 129.777344 132.007812 C 131.378906 132.945312 132.59375 134.269531 133.429688 135.972656 C 134.257812 137.667969 134.679688 139.585938 134.679688 141.734375 C 134.679688 143.914062 134.234375 145.855469 133.351562 147.574219 C 132.476562 149.292969 131.234375 150.597656 129.621094 151.480469 C 128.003906 152.367188 126.265625 152.808594 124.40625 152.808594 C 122.382812 152.808594 120.578125 152.320312 118.976562 151.34375 C 117.382812 150.367188 116.183594 149.035156 115.363281 147.339844 C 114.542969 145.648438 114.132812 143.859375 114.132812 141.96875 Z M 117.0625 142.027344 C 117.0625 144.605469 117.757812 146.648438 119.152344 148.140625 C 120.542969 149.625 122.289062 150.367188 124.386719 150.367188 C 126.535156 150.367188 128.296875 149.621094 129.679688 148.121094 C 131.054688 146.613281 131.75 144.476562 131.75 141.714844 C 131.75 139.972656 131.445312 138.449219 130.851562 137.144531 C 130.265625 135.832031 129.398438 134.816406 128.253906 134.097656 C 127.121094 133.382812 125.851562 133.023438 124.445312 133.023438 C 122.421875 133.023438 120.6875 133.71875 119.230469 135.09375 C 117.785156 136.476562 117.0625 138.785156 117.0625 142.027344 Z M 117.0625 142.027344 "/>
<path style=" stroke:none;fill-rule:nonzero;fill:rgb(0%,0%,0%);fill-opacity:1;" d="M 125.9375 127.75 L 128.0625 127.75 L 128.0625 90.3125 L 125.9375 90.3125 L 125.9375 127.75 Z M 125.9375 127.75 "/>
<path style=" stroke:none;fill-rule:nonzero;fill:rgb(0%,0%,0%);fill-opacity:1;" d="M 120.625 127.75 L 122.75 127.75 L 122.75 90.3125 L 120.625 90.3125 L 120.625 127.75 Z M 120.625 127.75 "/>
<path style=" stroke:none;fill-rule:nonzero;fill:rgb(0%,0%,0%);fill-opacity:1;" d="M 216.949219 144.898438 L 219.800781 145.621094 C 219.199219 147.953125 218.125 149.738281 216.578125 150.972656 C 215.023438 152.199219 213.132812 152.808594 210.894531 152.808594 C 208.589844 152.808594 206.703125 152.339844 205.25 151.402344 C 203.804688 150.453125 202.703125 149.085938 201.949219 147.300781 C 201.191406 145.503906 200.816406 143.585938 200.816406 141.539062 C 200.816406 139.304688 201.234375 137.351562 202.085938 135.679688 C 202.945312 134.015625 204.160156 132.75 205.738281 131.890625 C 207.3125 131.03125 209.046875 130.601562 210.953125 130.601562 C 213.101562 130.601562 214.902344 131.148438 216.363281 132.242188 C 217.832031 133.335938 218.851562 134.875 219.429688 136.851562 L 216.636719 137.515625 C 216.128906 135.953125 215.398438 134.816406 214.449219 134.097656 C 213.511719 133.382812 212.324219 133.023438 210.894531 133.023438 C 209.238281 133.023438 207.859375 133.421875 206.753906 134.214844 C 205.644531 135.011719 204.863281 136.070312 204.410156 137.398438 C 203.964844 138.726562 203.746094 140.101562 203.746094 141.519531 C 203.746094 143.34375 204.003906 144.9375 204.527344 146.304688 C 205.058594 147.671875 205.882812 148.695312 207.007812 149.371094 C 208.140625 150.035156 209.355469 150.367188 210.660156 150.367188 C 212.261719 150.367188 213.609375 149.914062 214.703125 149 C 215.804688 148.078125 216.558594 146.710938 216.949219 144.898438 Z M 216.949219 144.898438 "/>
<path style=" stroke:none;fill-rule:nonzero;fill:rgb(0%,0%,0%);fill-opacity:1;" d="M 223.378906 152.4375 L 223.378906 130.953125 L 226.230469 130.953125 L 226.230469 139.78125 L 237.382812 139.78125 L 237.382812 130.953125 L 240.234375 130.953125 L 240.234375 152.4375 L 237.382812 152.4375 L 237.382812 142.320312 L 226.230469 142.320312 L 226.230469 152.4375 L 223.378906 152.4375 Z M 223.378906 152.4375 "/>
<path style=" stroke:none;fill-rule:nonzero;fill:rgb(0%,0%,0%);fill-opacity:1;" d="M 243.644531 154.535156 L 245.636719 154.28125 C 245.855469 155.40625 246.242188 156.210938 246.789062 156.703125 C 247.335938 157.203125 248 157.445312 248.78125 157.445312 C 249.71875 157.445312 250.503906 157.128906 251.144531 156.488281 C 251.777344 155.839844 252.101562 155.039062 252.101562 154.085938 C 252.101562 153.179688 251.796875 152.425781 251.203125 151.839844 C 250.617188 151.246094 249.863281 150.941406 248.957031 150.941406 C 248.574219 150.941406 248.105469 151.019531 247.550781 151.175781 L 247.765625 149.4375 C 247.890625 149.453125 248.003906 149.457031 248.097656 149.457031 C 248.925781 149.457031 249.683594 149.238281 250.363281 148.792969 C 251.035156 148.355469 251.378906 147.675781 251.378906 146.761719 C 251.378906 146.035156 251.128906 145.433594 250.636719 144.964844 C 250.136719 144.488281 249.507812 144.242188 248.742188 144.242188 C 247.96875 144.242188 247.324219 144.488281 246.808594 144.964844 C 246.300781 145.449219 245.972656 146.175781 245.832031 147.152344 L 243.859375 146.800781 C 244.09375 145.472656 244.640625 144.449219 245.5 143.714844 C 246.359375 142.988281 247.421875 142.621094 248.703125 142.621094 C 249.570312 142.621094 250.382812 142.8125 251.125 143.1875 C 251.867188 143.570312 252.433594 144.082031 252.824219 144.730469 C 253.214844 145.386719 253.410156 146.074219 253.410156 146.800781 C 253.410156 147.503906 253.21875 148.144531 252.84375 148.714844 C 252.476562 149.277344 251.925781 149.726562 251.183594 150.0625 C 252.128906 150.289062 252.867188 150.746094 253.390625 151.449219 C 253.921875 152.144531 254.191406 153.003906 254.191406 154.027344 C 254.191406 155.433594 253.671875 156.636719 252.648438 157.621094 C 251.632812 158.597656 250.34375 159.085938 248.78125 159.085938 C 247.359375 159.085938 246.183594 158.667969 245.246094 157.816406 C 244.316406 156.972656 243.785156 155.878906 243.644531 154.535156 Z M 243.644531 154.535156 "/>
<path style=" stroke:none;fill-rule:nonzero;fill:rgb(0%,0%,0%);fill-opacity:1;" d="M 215.0625 127.75 L 205.5 127.75 L 205.875 125 L 214.75 125 L 215.0625 127.75 Z M 215.0625 127.75 "/>
<path style=" stroke:none;fill-rule:nonzero;fill:rgb(0%,0%,0%);fill-opacity:1;" d="M 214.375 122.1875 L 206.1875 122.1875 L 206.5625 119.4375 L 214.0625 119.4375 L 214.375 122.1875 Z M 214.375 122.1875 "/>
<path style=" stroke:none;fill-rule:nonzero;fill:rgb(0%,0%,0%);fill-opacity:1;" d="M 213.75 116.625 L 206.875 116.625 L 207.1875 113.875 L 213.375 113.875 L 213.75 116.625 Z M 213.75 116.625 "/>
<path style=" stroke:none;fill-rule:nonzero;fill:rgb(0%,0%,0%);fill-opacity:1;" d="M 213.0625 111.0625 L 207.5625 111.0625 L 207.875 108.3125 L 212.6875 108.3125 L 213.0625 111.0625 Z M 213.0625 111.0625 "/>
<path style=" stroke:none;fill-rule:nonzero;fill:rgb(0%,0%,0%);fill-opacity:1;" d="M 212.375 105.5625 L 208.25 105.5625 L 208.5625 102.75 L 212.0625 102.75 L 212.375 105.5625 Z M 212.375 105.5625 "/>
<path style=" stroke:none;fill-rule:nonzero;fill:rgb(0%,0%,0%);fill-opacity:1;" d="M 211.6875 100 L 208.875 100 L 209.25 97.1875 L 211.375 97.1875 L 211.6875 100 Z M 211.6875 100 "/>
<path style=" stroke:none;fill-rule:nonzero;fill:rgb(0%,0%,0%);fill-opacity:1;" d="M 243.070312 17.90625 C 243.070312 14.351562 244.027344 11.570312 245.941406 9.546875 C 247.855469 7.53125 250.328125 6.519531 253.363281 6.519531 C 255.339844 6.519531 257.125 7 258.714844 7.945312 C 260.316406 8.882812 261.53125 10.207031 262.367188 11.910156 C 263.195312 13.605469 263.617188 15.523438 263.617188 17.671875 C 263.617188 19.851562 263.171875 21.792969 262.289062 23.511719 C 261.414062 25.230469 260.171875 26.535156 258.558594 27.417969 C 256.941406 28.304688 255.203125 28.746094 253.34375 28.746094 C 251.320312 28.746094 249.515625 28.257812 247.914062 27.28125 C 246.320312 26.304688 245.121094 24.972656 244.300781 23.277344 C 243.480469 21.585938 243.070312 19.796875 243.070312 17.90625 Z M 246 17.964844 C 246 20.542969 246.695312 22.585938 248.089844 24.078125 C 249.480469 25.5625 251.226562 26.304688 253.324219 26.304688 C 255.472656 26.304688 257.234375 25.558594 258.617188 24.058594 C 259.992188 22.550781 260.6875 20.414062 260.6875 17.652344 C 260.6875 15.910156 260.382812 14.386719 259.789062 13.082031 C 259.203125 11.769531 258.335938 10.753906 257.191406 10.035156 C 256.058594 9.320312 254.789062 8.960938 253.382812 8.960938 C 251.359375 8.960938 249.625 9.65625 248.167969 11.03125 C 246.722656 12.414062 246 14.722656 246 17.964844 Z M 246 17.964844 "/>
<path style=" stroke:none;fill-rule:nonzero;fill:rgb(0%,0%,0%);fill-opacity:1;" d="M 249.5625 68.625 L 251.6875 68.625 L 251.6875 31.625 L 249.5625 31.625 L 249.5625 68.625 Z M 249.5625 68.625 "/>
<path style=" stroke:none;fill-rule:nonzero;fill:rgb(0%,0%,0%);fill-opacity:1;" d="M 254.875 68.625 L 257 68.625 L 257 31.625 L 254.875 31.625 L 254.875 68.625 Z M 254.875 68.625 "/>
<path style=" stroke:none;fill-rule:nonzero;fill:rgb(0%,0%,0%);fill-opacity:1;" d="M 345.824219 20.835938 L 348.675781 21.558594 C 348.074219 23.890625 347 25.675781 345.453125 26.910156 C 343.898438 28.136719 342.007812 28.746094 339.769531 28.746094 C 337.464844 28.746094 335.578125 28.277344 334.125 27.339844 C 332.679688 26.390625 331.578125 25.023438 330.824219 23.238281 C 330.066406 21.441406 329.691406 19.523438 329.691406 17.476562 C 329.691406 15.242188 330.109375 13.289062 330.960938 11.617188 C 331.820312 9.953125 333.035156 8.6875 334.613281 7.828125 C 336.1875 6.96875 337.921875 6.539062 339.828125 6.539062 C 341.976562 6.539062 343.777344 7.085938 345.238281 8.179688 C 346.707031 9.273438 347.726562 10.8125 348.304688 12.789062 L 345.511719 13.453125 C 345.003906 11.890625 344.273438 10.753906 343.324219 10.035156 C 342.386719 9.320312 341.199219 8.960938 339.769531 8.960938 C 338.113281 8.960938 336.734375 9.359375 335.628906 10.152344 C 334.519531 10.949219 333.738281 12.007812 333.285156 13.335938 C 332.839844 14.664062 332.621094 16.039062 332.621094 17.457031 C 332.621094 19.28125 332.878906 20.875 333.402344 22.242188 C 333.933594 23.609375 334.757812 24.632812 335.882812 25.308594 C 337.015625 25.972656 338.230469 26.304688 339.535156 26.304688 C 341.136719 26.304688 342.484375 25.851562 343.578125 24.9375 C 344.679688 24.015625 345.433594 22.648438 345.824219 20.835938 Z M 345.824219 20.835938 "/>
<path style=" stroke:none;fill-rule:nonzero;fill:rgb(0%,0%,0%);fill-opacity:1;" d="M 352.253906 28.375 L 352.253906 6.890625 L 355.105469 6.890625 L 355.105469 15.71875 L 366.257812 15.71875 L 366.257812 6.890625 L 369.109375 6.890625 L 369.109375 28.375 L 366.257812 28.375 L 366.257812 18.257812 L 355.105469 18.257812 L 355.105469 28.375 L 352.253906 28.375 Z M 352.253906 28.375 "/>
<path style=" stroke:none;fill-rule:nonzero;fill:rgb(0%,0%,0%);fill-opacity:1;" d="M 372.519531 30.472656 L 374.511719 30.21875 C 374.730469 31.34375 375.117188 32.148438 375.664062 32.640625 C 376.210938 33.140625 376.875 33.382812 377.65625 33.382812 C 378.59375 33.382812 379.378906 33.066406 380.019531 32.425781 C 380.652344 31.777344 380.976562 30.976562 380.976562 30.023438 C 380.976562 29.117188 380.671875 28.363281 380.078125 27.777344 C 379.492188 27.183594 378.738281 26.878906 377.832031 26.878906 C 377.449219 26.878906 376.980469 26.957031 376.425781 27.113281 L 376.640625 25.375 C 376.765625 25.390625 376.878906 25.394531 376.972656 25.394531 C 377.800781 25.394531 378.558594 25.175781 379.238281 24.730469 C 379.910156 24.292969 380.253906 23.613281 380.253906 22.699219 C 380.253906 21.972656 380.003906 21.371094 379.511719 20.902344 C 379.011719 20.425781 378.382812 20.179688 377.617188 20.179688 C 376.84375 20.179688 376.199219 20.425781 375.683594 20.902344 C 375.175781 21.386719 374.847656 22.113281 374.707031 23.089844 L 372.734375 22.738281 C 372.96875 21.410156 373.515625 20.386719 374.375 19.652344 C 375.234375 18.925781 376.296875 18.558594 377.578125 18.558594 C 378.445312 18.558594 379.257812 18.75 380 19.125 C 380.742188 19.507812 381.308594 20.019531 381.699219 20.667969 C 382.089844 21.324219 382.285156 22.011719 382.285156 22.738281 C 382.285156 23.441406 382.09375 24.082031 381.71875 24.652344 C 381.351562 25.214844 380.800781 25.664062 380.058594 26 C 381.003906 26.226562 381.742188 26.683594 382.265625 27.386719 C 382.796875 28.082031 383.066406 28.941406 383.066406 29.964844 C 383.066406 31.371094 382.546875 32.574219 381.523438 33.558594 C 380.507812 34.535156 379.21875 35.023438 377.65625 35.023438 C 376.234375 35.023438 375.058594 34.605469 374.121094 33.753906 C 373.191406 32.910156 372.660156 31.816406 372.519531 30.472656 Z M 372.519531 30.472656 "/>
<path style=" stroke:none;fill-rule:nonzero;fill:rgb(0%,0%,0%);fill-opacity:1;" d="M 334.4375 31.625 L 344 31.625 L 340.3125 66.5 L 339.1875 67.0625 L 338.0625 66.5 L 334.4375 31.625 Z M 334.4375 31.625 "/>
<path style=" stroke:none;fill-rule:nonzero;fill:rgb(0%,0%,0%);fill-opacity:1;" d="M 371.945312 141.96875 C 371.945312 138.414062 372.902344 135.632812 374.816406 133.609375 C 376.730469 131.59375 379.203125 130.582031 382.238281 130.582031 C 384.214844 130.582031 386 131.0625 387.589844 132.007812 C 389.191406 132.945312 390.40625 134.269531 391.242188 135.972656 C 392.070312 137.667969 392.492188 139.585938 392.492188 141.734375 C 392.492188 143.914062 392.046875 145.855469 391.164062 147.574219 C 390.289062 149.292969 389.046875 150.597656 387.433594 151.480469 C 385.816406 152.367188 384.078125 152.808594 382.21875 152.808594 C 380.195312 152.808594 378.390625 152.320312 376.789062 151.34375 C 375.195312 150.367188 373.996094 149.035156 373.175781 147.339844 C 372.355469 145.648438 371.945312 143.859375 371.945312 141.96875 Z M 374.875 142.027344 C 374.875 144.605469 375.570312 146.648438 376.964844 148.140625 C 378.355469 149.625 380.101562 150.367188 382.199219 150.367188 C 384.347656 150.367188 386.109375 149.621094 387.492188 148.121094 C 388.867188 146.613281 389.5625 144.476562 389.5625 141.714844 C 389.5625 139.972656 389.257812 138.449219 388.664062 137.144531 C 388.078125 135.832031 387.210938 134.816406 386.066406 134.097656 C 384.933594 133.382812 383.664062 133.023438 382.257812 133.023438 C 380.234375 133.023438 378.5 133.71875 377.042969 135.09375 C 375.597656 136.476562 374.875 138.785156 374.875 142.027344 Z M 374.875 142.027344 "/>
<path style=" stroke:none;fill-rule:nonzero;fill:rgb(0%,0%,0%);fill-opacity:1;" d="M 383.75 127.75 L 385.875 127.75 L 385.875 90.3125 L 383.75 90.3125 L 383.75 127.75 Z M 383.75 127.75 "/>
<path style=" stroke:none;fill-rule:nonzero;fill:rgb(0%,0%,0%);fill-opacity:1;" d="M 378.4375 127.75 L 380.5625 127.75 L 380.5625 90.3125 L 378.4375 90.3125 L 378.4375 127.75 Z M 378.4375 127.75 "/>
<path style=" stroke:none;fill-rule:nonzero;fill:rgb(0%,0%,0%);fill-opacity:1;" d="M 5.652344 325.9375 L 5.652344 304.453125 L 8.503906 304.453125 L 8.503906 313.28125 L 19.65625 313.28125 L 19.65625 304.453125 L 22.507812 304.453125 L 22.507812 325.9375 L 19.65625 325.9375 L 19.65625 315.820312 L 8.503906 315.820312 L 8.503906 325.9375 L 5.652344 325.9375 Z M 5.652344 325.9375 "/>
<path style=" stroke:none;fill-rule:nonzero;fill:rgb(0%,0%,0%);fill-opacity:1;" d="M 26.359375 315.46875 C 26.359375 311.914062 27.316406 309.132812 29.230469 307.109375 C 31.144531 305.09375 33.617188 304.082031 36.652344 304.082031 C 38.632812 304.082031 40.414062 304.5625 42.003906 305.507812 C 43.605469 306.445312 44.824219 307.769531 45.65625 309.472656 C 46.488281 311.167969 46.90625 313.085938 46.90625 315.234375 C 46.90625 317.414062 46.464844 319.355469 45.578125 321.074219 C 44.707031 322.792969 43.460938 324.097656 41.847656 324.980469 C 40.234375 325.867188 38.496094 326.308594 36.632812 326.308594 C 34.613281 326.308594 32.804688 325.820312 31.203125 324.84375 C 29.613281 323.867188 28.410156 322.535156 27.589844 320.839844 C 26.769531 319.148438 26.359375 317.359375 26.359375 315.46875 Z M 29.289062 315.527344 C 29.289062 318.105469 29.984375 320.148438 31.378906 321.640625 C 32.773438 323.125 34.515625 323.867188 36.613281 323.867188 C 38.761719 323.867188 40.527344 323.121094 41.90625 321.621094 C 43.285156 320.113281 43.976562 317.976562 43.976562 315.214844 C 43.976562 313.472656 43.675781 311.949219 43.078125 310.644531 C 42.492188 309.332031 41.625 308.316406 40.480469 307.597656 C 39.347656 306.882812 38.078125 306.523438 36.671875 306.523438 C 34.652344 306.523438 32.914062 307.21875 31.457031 308.59375 C 30.011719 309.976562 29.289062 312.285156 29.289062 315.527344 Z M 29.289062 315.527344 "/>
<path style=" stroke:none;fill-rule:nonzero;fill:rgb(49.803922%,49.803922%,49.803922%);fill-opacity:1;" d="M 66.945312 319.726562 C 65.78125 317.210938 65.207031 314.628906 65.207031 311.972656 C 65.207031 310.203125 65.441406 308.554688 65.910156 307.03125 C 66.378906 305.5 67.085938 303.980469 68.039062 302.480469 C 68.664062 301.492188 69.671875 300.203125 71.066406 298.613281 L 72.609375 298.613281 C 71.75 299.539062 70.835938 300.835938 69.875 302.5 C 68.921875 304.15625 68.234375 305.78125 67.804688 307.382812 C 67.375 308.984375 67.160156 310.601562 67.160156 312.226562 C 67.160156 314.640625 67.578125 317.132812 68.429688 319.726562 L 66.945312 319.726562 Z M 66.945312 319.726562 "/>
<path style=" stroke:none;fill-rule:nonzero;fill:rgb(49.803922%,49.803922%,49.803922%);fill-opacity:1;" d="M 71.859375 315 L 75.238281 298.886719 L 81.996094 298.886719 C 83.324219 298.886719 84.332031 299.003906 85.023438 299.238281 C 85.710938 299.460938 86.253906 299.878906 86.644531 300.488281 C 87.035156 301.101562 87.230469 301.875 87.230469 302.8125 C 87.230469 304.132812 86.800781 305.226562 85.941406 306.09375 C 85.082031 306.953125 83.699219 307.507812 81.800781 307.753906 C 82.386719 308.183594 82.828125 308.613281 83.128906 309.042969 C 83.792969 309.980469 84.332031 310.957031 84.75 311.972656 L 85.980469 315 L 83.578125 315 L 82.425781 311.992188 C 82.007812 310.914062 81.527344 309.976562 80.980469 309.179688 C 80.613281 308.632812 80.242188 308.277344 79.867188 308.105469 C 79.488281 307.9375 78.871094 307.851562 78.011719 307.851562 L 75.511719 307.851562 L 74.007812 315 L 71.859375 315 Z M 75.863281 306.09375 L 78.851562 306.09375 C 80.230469 306.09375 81.128906 306.085938 81.546875 306.054688 C 82.351562 305.96875 83.015625 305.777344 83.539062 305.488281 C 84.058594 305.203125 84.460938 304.820312 84.75 304.335938 C 85.035156 303.859375 85.179688 303.335938 85.179688 302.773438 C 85.179688 302.304688 85.066406 301.90625 84.847656 301.5625 C 84.636719 301.210938 84.359375 300.976562 84.007812 300.859375 C 83.667969 300.734375 83.089844 300.664062 82.269531 300.664062 L 77.015625 300.664062 L 75.863281 306.09375 Z M 75.863281 306.09375 "/>
<path style=" stroke:none;fill-rule:nonzero;fill:rgb(49.803922%,49.803922%,49.803922%);fill-opacity:1;" d="M 91.507812 298.613281 C 92.664062 301.140625 93.246094 303.726562 93.246094 306.367188 C 93.246094 308.15625 93.011719 309.804688 92.542969 311.328125 C 92.082031 312.851562 91.378906 314.367188 90.433594 315.859375 C 89.792969 316.859375 88.78125 318.148438 87.40625 319.726562 L 85.863281 319.726562 C 86.710938 318.8125 87.605469 317.523438 88.558594 315.859375 C 89.519531 314.195312 90.21875 312.558594 90.648438 310.957031 C 91.078125 309.355469 91.292969 307.742188 91.292969 306.113281 C 91.292969 303.707031 90.867188 301.207031 90.023438 298.613281 L 91.507812 298.613281 Z M 91.507812 298.613281 "/>
<path style=" stroke:none;fill-rule:nonzero;fill:rgb(49.803922%,49.803922%,49.803922%);fill-opacity:1;" d="M 66.945312 319.726562 C 65.78125 317.210938 65.207031 314.628906 65.207031 311.972656 C 65.207031 310.203125 65.441406 308.554688 65.910156 307.03125 C 66.378906 305.5 67.085938 303.980469 68.039062 302.480469 C 68.664062 301.492188 69.671875 300.203125 71.066406 298.613281 L 72.609375 298.613281 C 71.75 299.539062 70.835938 300.835938 69.875 302.5 C 68.921875 304.15625 68.234375 305.78125 67.804688 307.382812 C 67.375 308.984375 67.160156 310.601562 67.160156 312.226562 C 67.160156 314.640625 67.578125 317.132812 68.429688 319.726562 L 66.945312 319.726562 Z M 66.945312 319.726562 "/>
<path style=" stroke:none;fill-rule:nonzero;fill:rgb(49.803922%,49.803922%,49.803922%);fill-opacity:1;" d="M 71.859375 315 L 75.238281 298.886719 L 81.996094 298.886719 C 83.324219 298.886719 84.332031 299.003906 85.023438 299.238281 C 85.710938 299.460938 86.253906 299.878906 86.644531 300.488281 C 87.035156 301.101562 87.230469 301.875 87.230469 302.8125 C 87.230469 304.132812 86.800781 305.226562 85.941406 306.09375 C 85.082031 306.953125 83.699219 307.507812 81.800781 307.753906 C 82.386719 308.183594 82.828125 308.613281 83.128906 309.042969 C 83.792969 309.980469 84.332031 310.957031 84.75 311.972656 L 85.980469 315 L 83.578125 315 L 82.425781 311.992188 C 82.007812 310.914062 81.527344 309.976562 80.980469 309.179688 C 80.613281 308.632812 80.242188 308.277344 79.867188 308.105469 C 79.488281 307.9375 78.871094 307.851562 78.011719 307.851562 L 75.511719 307.851562 L 74.007812 315 L 71.859375 315 Z M 75.863281 306.09375 L 78.851562 306.09375 C 80.230469 306.09375 81.128906 306.085938 81.546875 306.054688 C 82.351562 305.96875 83.015625 305.777344 83.539062 305.488281 C 84.058594 305.203125 84.460938 304.820312 84.75 304.335938 C 85.035156 303.859375 85.179688 303.335938 85.179688 302.773438 C 85.179688 302.304688 85.066406 301.90625 84.847656 301.5625 C 84.636719 301.210938 84.359375 300.976562 84.007812 300.859375 C 83.667969 300.734375 83.089844 300.664062 82.269531 300.664062 L 77.015625 300.664062 L 75.863281 306.09375 Z M 75.863281 306.09375 "/>
<path style=" stroke:none;fill-rule:nonzero;fill:rgb(49.803922%,49.803922%,49.803922%);fill-opacity:1;" d="M 91.507812 298.613281 C 92.664062 301.140625 93.246094 303.726562 93.246094 306.367188 C 93.246094 308.15625 93.011719 309.804688 92.542969 311.328125 C 92.082031 312.851562 91.378906 314.367188 90.433594 315.859375 C 89.792969 316.859375 88.78125 318.148438 87.40625 319.726562 L 85.863281 319.726562 C 86.710938 318.8125 87.605469 317.523438 88.558594 315.859375 C 89.519531 314.195312 90.21875 312.558594 90.648438 310.957031 C 91.078125 309.355469 91.292969 307.742188 91.292969 306.113281 C 91.292969 303.707031 90.867188 301.207031 90.023438 298.613281 L 91.507812 298.613281 Z M 91.507812 298.613281 "/>
<path style=" stroke:none;fill-rule:nonzero;fill:rgb(0%,0%,0%);fill-opacity:1;" d="M 79.5 288.9375 L 79.5 291.4375 L 48.75 309.1875 L 47.6875 307.3125 L 79.5 288.9375 Z M 79.5 288.9375 "/>
<path style=" stroke:none;fill-rule:nonzero;fill:rgb(0%,0%,0%);fill-opacity:1;" d="M 122.5 313.75 L 122.5 316.25 L 79.5 291.4375 L 79.5 288.9375 L 122.5 313.75 Z M 122.5 313.75 "/>
<path style=" stroke:none;fill-rule:nonzero;fill:rgb(0%,0%,0%);fill-opacity:1;" d="M 155.257812 290.65625 C 155.257812 287.101562 156.214844 284.320312 158.128906 282.296875 C 160.042969 280.28125 162.515625 279.269531 165.550781 279.269531 C 167.527344 279.269531 169.3125 279.75 170.902344 280.695312 C 172.503906 281.632812 173.71875 282.957031 174.554688 284.660156 C 175.382812 286.355469 175.804688 288.273438 175.804688 290.421875 C 175.804688 292.601562 175.359375 294.542969 174.476562 296.261719 C 173.601562 297.980469 172.359375 299.285156 170.746094 300.167969 C 169.128906 301.054688 167.390625 301.496094 165.53125 301.496094 C 163.507812 301.496094 161.703125 301.007812 160.101562 300.03125 C 158.507812 299.054688 157.308594 297.722656 156.488281 296.027344 C 155.667969 294.335938 155.257812 292.546875 155.257812 290.65625 Z M 158.1875 290.714844 C 158.1875 293.292969 158.882812 295.335938 160.277344 296.828125 C 161.667969 298.3125 163.414062 299.054688 165.511719 299.054688 C 167.660156 299.054688 169.421875 298.308594 170.804688 296.808594 C 172.179688 295.300781 172.875 293.164062 172.875 290.402344 C 172.875 288.660156 172.570312 287.136719 171.976562 285.832031 C 171.390625 284.519531 170.523438 283.503906 169.378906 282.785156 C 168.246094 282.070312 166.976562 281.710938 165.570312 281.710938 C 163.546875 281.710938 161.8125 282.40625 160.355469 283.78125 C 158.910156 285.164062 158.1875 287.472656 158.1875 290.714844 Z M 158.1875 290.714844 "/>
<path style=" stroke:none;fill-rule:nonzero;fill:rgb(0%,0%,0%);fill-opacity:1;" d="M 153.125 296.0625 L 154.1875 297.9375 L 122.5 316.25 L 122.5 313.75 L 153.125 296.0625 Z M 153.125 296.0625 "/>
<path style=" stroke:none;fill-rule:nonzero;fill:rgb(49.803922%,49.803922%,49.803922%);fill-opacity:1;" d="M 197.632812 305.914062 C 196.46875 303.398438 195.894531 300.816406 195.894531 298.160156 C 195.894531 296.390625 196.128906 294.742188 196.597656 293.21875 C 197.066406 291.6875 197.773438 290.167969 198.726562 288.667969 C 199.351562 287.679688 200.359375 286.390625 201.753906 284.800781 L 203.296875 284.800781 C 202.4375 285.726562 201.523438 287.023438 200.5625 288.6875 C 199.609375 290.34375 198.921875 291.96875 198.492188 293.570312 C 198.0625 295.171875 197.847656 296.789062 197.847656 298.414062 C 197.847656 300.828125 198.265625 303.320312 199.117188 305.914062 L 197.632812 305.914062 Z M 197.632812 305.914062 "/>
<path style=" stroke:none;fill-rule:nonzero;fill:rgb(49.803922%,49.803922%,49.803922%);fill-opacity:1;" d="M 202.546875 301.1875 L 205.925781 285.074219 L 212.683594 285.074219 C 214.011719 285.074219 215.019531 285.191406 215.710938 285.425781 C 216.398438 285.648438 216.941406 286.066406 217.332031 286.675781 C 217.722656 287.289062 217.917969 288.0625 217.917969 289 C 217.917969 290.320312 217.488281 291.414062 216.628906 292.28125 C 215.769531 293.140625 214.386719 293.695312 212.488281 293.941406 C 213.074219 294.371094 213.515625 294.800781 213.816406 295.230469 C 214.480469 296.167969 215.019531 297.144531 215.4375 298.160156 L 216.667969 301.1875 L 214.265625 301.1875 L 213.113281 298.179688 C 212.695312 297.101562 212.214844 296.164062 211.667969 295.367188 C 211.300781 294.820312 210.929688 294.464844 210.554688 294.292969 C 210.175781 294.125 209.558594 294.039062 208.699219 294.039062 L 206.199219 294.039062 L 204.695312 301.1875 L 202.546875 301.1875 Z M 206.550781 292.28125 L 209.539062 292.28125 C 210.917969 292.28125 211.816406 292.273438 212.234375 292.242188 C 213.039062 292.15625 213.703125 291.964844 214.226562 291.675781 C 214.746094 291.390625 215.148438 291.007812 215.4375 290.523438 C 215.722656 290.046875 215.867188 289.523438 215.867188 288.960938 C 215.867188 288.492188 215.753906 288.09375 215.535156 287.75 C 215.324219 287.398438 215.046875 287.164062 214.695312 287.046875 C 214.355469 286.921875 213.777344 286.851562 212.957031 286.851562 L 207.703125 286.851562 L 206.550781 292.28125 Z M 206.550781 292.28125 "/>
<path style=" stroke:none;fill-rule:nonzero;fill:rgb(49.803922%,49.803922%,49.803922%);fill-opacity:1;" d="M 222.195312 284.800781 C 223.351562 287.328125 223.933594 289.914062 223.933594 292.554688 C 223.933594 294.34375 223.699219 295.992188 223.230469 297.515625 C 222.769531 299.039062 222.066406 300.554688 221.121094 302.046875 C 220.480469 303.046875 219.46875 304.335938 218.09375 305.914062 L 216.550781 305.914062 C 217.398438 305 218.292969 303.710938 219.246094 302.046875 C 220.207031 300.382812 220.90625 298.746094 221.335938 297.144531 C 221.765625 295.542969 221.980469 293.929688 221.980469 292.300781 C 221.980469 289.894531 221.554688 287.394531 220.710938 284.800781 L 222.195312 284.800781 Z M 222.195312 284.800781 "/>
<path style=" stroke:none;fill-rule:nonzero;fill:rgb(49.803922%,49.803922%,49.803922%);fill-opacity:1;" d="M 197.632812 305.914062 C 196.46875 303.398438 195.894531 300.816406 195.894531 298.160156 C 195.894531 296.390625 196.128906 294.742188 196.597656 293.21875 C 197.066406 291.6875 197.773438 290.167969 198.726562 288.667969 C 199.351562 287.679688 200.359375 286.390625 201.753906 284.800781 L 203.296875 284.800781 C 202.4375 285.726562 201.523438 287.023438 200.5625 288.6875 C 199.609375 290.34375 198.921875 291.96875 198.492188 293.570312 C 198.0625 295.171875 197.847656 296.789062 197.847656 298.414062 C 197.847656 300.828125 198.265625 303.320312 199.117188 305.914062 L 197.632812 305.914062 Z M 197.632812 305.914062 "/>
<path style=" stroke:none;fill-rule:nonzero;fill:rgb(49.803922%,49.803922%,49.803922%);fill-opacity:1;" d="M 202.546875 301.1875 L 205.925781 285.074219 L 212.683594 285.074219 C 214.011719 285.074219 215.019531 285.191406 215.710938 285.425781 C 216.398438 285.648438 216.941406 286.066406 217.332031 286.675781 C 217.722656 287.289062 217.917969 288.0625 217.917969 289 C 217.917969 290.320312 217.488281 291.414062 216.628906 292.28125 C 215.769531 293.140625 214.386719 293.695312 212.488281 293.941406 C 213.074219 294.371094 213.515625 294.800781 213.816406 295.230469 C 214.480469 296.167969 215.019531 297.144531 215.4375 298.160156 L 216.667969 301.1875 L 214.265625 301.1875 L 213.113281 298.179688 C 212.695312 297.101562 212.214844 296.164062 211.667969 295.367188 C 211.300781 294.820312 210.929688 294.464844 210.554688 294.292969 C 210.175781 294.125 209.558594 294.039062 208.699219 294.039062 L 206.199219 294.039062 L 204.695312 301.1875 L 202.546875 301.1875 Z M 206.550781 292.28125 L 209.539062 292.28125 C 210.917969 292.28125 211.816406 292.273438 212.234375 292.242188 C 213.039062 292.15625 213.703125 291.964844 214.226562 291.675781 C 214.746094 291.390625 215.148438 291.007812 215.4375 290.523438 C 215.722656 290.046875 215.867188 289.523438 215.867188 288.960938 C 215.867188 288.492188 215.753906 288.09375 215.535156 287.75 C 215.324219 287.398438 215.046875 287.164062 214.695312 287.046875 C 214.355469 286.921875 213.777344 286.851562 212.957031 286.851562 L 207.703125 286.851562 L 206.550781 292.28125 Z M 206.550781 292.28125 "/>
<path style=" stroke:none;fill-rule:nonzero;fill:rgb(49.803922%,49.803922%,49.803922%);fill-opacity:1;" d="M 222.195312 284.800781 C 223.351562 287.328125 223.933594 289.914062 223.933594 292.554688 C 223.933594 294.34375 223.699219 295.992188 223.230469 297.515625 C 222.769531 299.039062 222.066406 300.554688 221.121094 302.046875 C 220.480469 303.046875 219.46875 304.335938 218.09375 305.914062 L 216.550781 305.914062 C 217.398438 305 218.292969 303.710938 219.246094 302.046875 C 220.207031 300.382812 220.90625 298.746094 221.335938 297.144531 C 221.765625 295.542969 221.980469 293.929688 221.980469 292.300781 C 221.980469 289.894531 221.554688 287.394531 220.710938 284.800781 L 222.195312 284.800781 Z M 222.195312 284.800781 "/>
<path style=" stroke:none;fill-rule:nonzero;fill:rgb(0%,0%,0%);fill-opacity:1;" d="M 208.4375 313.75 L 208.4375 315 L 207.3125 315.5625 L 176.75 297.9375 L 177.8125 296.125 L 208.4375 313.75 Z M 208.4375 313.75 "/>
<path style=" stroke:none;fill-rule:nonzero;fill:rgb(0%,0%,0%);fill-opacity:1;" d="M 251.375 288.9375 L 251.375 291.4375 L 209.5625 315.5625 L 208.4375 315 L 208.4375 313.75 L 251.375 288.9375 Z M 251.375 288.9375 "/>
<path style=" stroke:none;fill-rule:nonzero;fill:rgb(0%,0%,0%);fill-opacity:1;" d="M 284.132812 315.46875 C 284.132812 311.914062 285.089844 309.132812 287.003906 307.109375 C 288.917969 305.09375 291.390625 304.082031 294.425781 304.082031 C 296.402344 304.082031 298.1875 304.5625 299.777344 305.507812 C 301.378906 306.445312 302.59375 307.769531 303.429688 309.472656 C 304.257812 311.167969 304.679688 313.085938 304.679688 315.234375 C 304.679688 317.414062 304.234375 319.355469 303.351562 321.074219 C 302.476562 322.792969 301.234375 324.097656 299.621094 324.980469 C 298.003906 325.867188 296.265625 326.308594 294.40625 326.308594 C 292.382812 326.308594 290.578125 325.820312 288.976562 324.84375 C 287.382812 323.867188 286.183594 322.535156 285.363281 320.839844 C 284.542969 319.148438 284.132812 317.359375 284.132812 315.46875 Z M 287.0625 315.527344 C 287.0625 318.105469 287.757812 320.148438 289.152344 321.640625 C 290.542969 323.125 292.289062 323.867188 294.386719 323.867188 C 296.535156 323.867188 298.296875 323.121094 299.679688 321.621094 C 301.054688 320.113281 301.75 317.976562 301.75 315.214844 C 301.75 313.472656 301.445312 311.949219 300.851562 310.644531 C 300.265625 309.332031 299.398438 308.316406 298.253906 307.597656 C 297.121094 306.882812 295.851562 306.523438 294.445312 306.523438 C 292.421875 306.523438 290.6875 307.21875 289.230469 308.59375 C 287.785156 309.976562 287.0625 312.285156 287.0625 315.527344 Z M 287.0625 315.527344 "/>
<path style=" stroke:none;fill-rule:nonzero;fill:rgb(0%,0%,0%);fill-opacity:1;" d="M 283.25 307.375 L 282.1875 309.1875 L 251.375 291.4375 L 251.375 288.9375 L 283.25 307.375 Z M 283.25 307.375 "/>
<path style=" stroke:none;fill-rule:nonzero;fill:rgb(49.803922%,49.803922%,49.803922%);fill-opacity:1;" d="M 324.070312 319.726562 C 322.90625 317.210938 322.332031 314.628906 322.332031 311.972656 C 322.332031 310.203125 322.566406 308.554688 323.035156 307.03125 C 323.503906 305.5 324.210938 303.980469 325.164062 302.480469 C 325.789062 301.492188 326.796875 300.203125 328.191406 298.613281 L 329.734375 298.613281 C 328.875 299.539062 327.960938 300.835938 327 302.5 C 326.046875 304.15625 325.359375 305.78125 324.929688 307.382812 C 324.5 308.984375 324.285156 310.601562 324.285156 312.226562 C 324.285156 314.640625 324.703125 317.132812 325.554688 319.726562 L 324.070312 319.726562 Z M 324.070312 319.726562 "/>
<path style=" stroke:none;fill-rule:nonzero;fill:rgb(49.803922%,49.803922%,49.803922%);fill-opacity:1;" d="M 328.984375 315 L 332.363281 298.886719 L 339.121094 298.886719 C 340.449219 298.886719 341.457031 299.003906 342.148438 299.238281 C 342.835938 299.460938 343.378906 299.878906 343.769531 300.488281 C 344.160156 301.101562 344.355469 301.875 344.355469 302.8125 C 344.355469 304.132812 343.925781 305.226562 343.066406 306.09375 C 342.207031 306.953125 340.824219 307.507812 338.925781 307.753906 C 339.511719 308.183594 339.953125 308.613281 340.253906 309.042969 C 340.917969 309.980469 341.457031 310.957031 341.875 311.972656 L 343.105469 315 L 340.703125 315 L 339.550781 311.992188 C 339.132812 310.914062 338.652344 309.976562 338.105469 309.179688 C 337.738281 308.632812 337.367188 308.277344 336.992188 308.105469 C 336.613281 307.9375 335.996094 307.851562 335.136719 307.851562 L 332.636719 307.851562 L 331.132812 315 L 328.984375 315 Z M 332.988281 306.09375 L 335.976562 306.09375 C 337.355469 306.09375 338.253906 306.085938 338.671875 306.054688 C 339.476562 305.96875 340.140625 305.777344 340.664062 305.488281 C 341.183594 305.203125 341.585938 304.820312 341.875 304.335938 C 342.160156 303.859375 342.304688 303.335938 342.304688 302.773438 C 342.304688 302.304688 342.191406 301.90625 341.972656 301.5625 C 341.761719 301.210938 341.484375 300.976562 341.132812 300.859375 C 340.792969 300.734375 340.214844 300.664062 339.394531 300.664062 L 334.140625 300.664062 L 332.988281 306.09375 Z M 332.988281 306.09375 "/>
<path style=" stroke:none;fill-rule:nonzero;fill:rgb(49.803922%,49.803922%,49.803922%);fill-opacity:1;" d="M 348.632812 298.613281 C 349.789062 301.140625 350.371094 303.726562 350.371094 306.367188 C 350.371094 308.15625 350.136719 309.804688 349.667969 311.328125 C 349.207031 312.851562 348.503906 314.367188 347.558594 315.859375 C 346.917969 316.859375 345.90625 318.148438 344.53125 319.726562 L 342.988281 319.726562 C 343.835938 318.8125 344.730469 317.523438 345.683594 315.859375 C 346.644531 314.195312 347.34375 312.558594 347.773438 310.957031 C 348.203125 309.355469 348.417969 307.742188 348.417969 306.113281 C 348.417969 303.707031 347.992188 301.207031 347.148438 298.613281 L 348.632812 298.613281 Z M 348.632812 298.613281 "/>
<path style=" stroke:none;fill-rule:nonzero;fill:rgb(49.803922%,49.803922%,49.803922%);fill-opacity:1;" d="M 324.070312 319.726562 C 322.90625 317.210938 322.332031 314.628906 322.332031 311.972656 C 322.332031 310.203125 322.566406 308.554688 323.035156 307.03125 C 323.503906 305.5 324.210938 303.980469 325.164062 302.480469 C 325.789062 301.492188 326.796875 300.203125 328.191406 298.613281 L 329.734375 298.613281 C 328.875 299.539062 327.960938 300.835938 327 302.5 C 326.046875 304.15625 325.359375 305.78125 324.929688 307.382812 C 324.5 308.984375 324.285156 310.601562 324.285156 312.226562 C 324.285156 314.640625 324.703125 317.132812 325.554688 319.726562 L 324.070312 319.726562 Z M 324.070312 319.726562 "/>
<path style=" stroke:none;fill-rule:nonzero;fill:rgb(49.803922%,49.803922%,49.803922%);fill-opacity:1;" d="M 328.984375 315 L 332.363281 298.886719 L 339.121094 298.886719 C 340.449219 298.886719 341.457031 299.003906 342.148438 299.238281 C 342.835938 299.460938 343.378906 299.878906 343.769531 300.488281 C 344.160156 301.101562 344.355469 301.875 344.355469 302.8125 C 344.355469 304.132812 343.925781 305.226562 343.066406 306.09375 C 342.207031 306.953125 340.824219 307.507812 338.925781 307.753906 C 339.511719 308.183594 339.953125 308.613281 340.253906 309.042969 C 340.917969 309.980469 341.457031 310.957031 341.875 311.972656 L 343.105469 315 L 340.703125 315 L 339.550781 311.992188 C 339.132812 310.914062 338.652344 309.976562 338.105469 309.179688 C 337.738281 308.632812 337.367188 308.277344 336.992188 308.105469 C 336.613281 307.9375 335.996094 307.851562 335.136719 307.851562 L 332.636719 307.851562 L 331.132812 315 L 328.984375 315 Z M 332.988281 306.09375 L 335.976562 306.09375 C 337.355469 306.09375 338.253906 306.085938 338.671875 306.054688 C 339.476562 305.96875 340.140625 305.777344 340.664062 305.488281 C 341.183594 305.203125 341.585938 304.820312 341.875 304.335938 C 342.160156 303.859375 342.304688 303.335938 342.304688 302.773438 C 342.304688 302.304688 342.191406 301.90625 341.972656 301.5625 C 341.761719 301.210938 341.484375 300.976562 341.132812 300.859375 C 340.792969 300.734375 340.214844 300.664062 339.394531 300.664062 L 334.140625 300.664062 L 332.988281 306.09375 Z M 332.988281 306.09375 "/>
<path style=" stroke:none;fill-rule:nonzero;fill:rgb(49.803922%,49.803922%,49.803922%);fill-opacity:1;" d="M 348.632812 298.613281 C 349.789062 301.140625 350.371094 303.726562 350.371094 306.367188 C 350.371094 308.15625 350.136719 309.804688 349.667969 311.328125 C 349.207031 312.851562 348.503906 314.367188 347.558594 315.859375 C 346.917969 316.859375 345.90625 318.148438 344.53125 319.726562 L 342.988281 319.726562 C 343.835938 318.8125 344.730469 317.523438 345.683594 315.859375 C 346.644531 314.195312 347.34375 312.558594 347.773438 310.957031 C 348.203125 309.355469 348.417969 307.742188 348.417969 306.113281 C 348.417969 303.707031 347.992188 301.207031 347.148438 298.613281 L 348.632812 298.613281 Z M 348.632812 298.613281 "/>
<path style=" stroke:none;fill-rule:nonzero;fill:rgb(0%,0%,0%);fill-opacity:1;" d="M 337.3125 288.9375 L 337.3125 291.4375 L 306.5625 309.1875 L 305.5 307.375 L 337.3125 288.9375 Z M 337.3125 288.9375 "/>
<path style=" stroke:none;fill-rule:nonzero;fill:rgb(0%,0%,0%);fill-opacity:1;" d="M 380.3125 313.75 L 380.3125 316.25 L 337.3125 291.4375 L 337.3125 288.9375 L 380.3125 313.75 Z M 380.3125 313.75 "/>
<path style=" stroke:none;fill-rule:nonzero;fill:rgb(0%,0%,0%);fill-opacity:1;" d="M 413.070312 290.65625 C 413.070312 287.101562 414.027344 284.320312 415.941406 282.296875 C 417.855469 280.28125 420.328125 279.269531 423.363281 279.269531 C 425.339844 279.269531 427.125 279.75 428.714844 280.695312 C 430.316406 281.632812 431.53125 282.957031 432.367188 284.660156 C 433.195312 286.355469 433.617188 288.273438 433.617188 290.421875 C 433.617188 292.601562 433.171875 294.542969 432.289062 296.261719 C 431.414062 297.980469 430.171875 299.285156 428.558594 300.167969 C 426.941406 301.054688 425.203125 301.496094 423.34375 301.496094 C 421.320312 301.496094 419.515625 301.007812 417.914062 300.03125 C 416.320312 299.054688 415.121094 297.722656 414.300781 296.027344 C 413.480469 294.335938 413.070312 292.546875 413.070312 290.65625 Z M 416 290.714844 C 416 293.292969 416.695312 295.335938 418.089844 296.828125 C 419.480469 298.3125 421.226562 299.054688 423.324219 299.054688 C 425.472656 299.054688 427.234375 298.308594 428.617188 296.808594 C 429.992188 295.300781 430.6875 293.164062 430.6875 290.402344 C 430.6875 288.660156 430.382812 287.136719 429.789062 285.832031 C 429.203125 284.519531 428.335938 283.503906 427.191406 282.785156 C 426.058594 282.070312 424.789062 281.710938 423.382812 281.710938 C 421.359375 281.710938 419.625 282.40625 418.167969 283.78125 C 416.722656 285.164062 416 287.472656 416 290.714844 Z M 416 290.714844 "/>
<path style=" stroke:none;fill-rule:nonzero;fill:rgb(0%,0%,0%);fill-opacity:1;" d="M 437.363281 301.125 L 437.363281 279.640625 L 440.214844 279.640625 L 440.214844 288.46875 L 451.367188 288.46875 L 451.367188 279.640625 L 454.21875 279.640625 L 454.21875 301.125 L 451.367188 301.125 L 451.367188 291.007812 L 440.214844 291.007812 L 440.214844 301.125 L 437.363281 301.125 Z M 437.363281 301.125 "/>
<path style=" stroke:none;fill-rule:nonzero;fill:rgb(0%,0%,0%);fill-opacity:1;" d="M 410.9375 296.0625 L 412 297.9375 L 380.3125 316.25 L 380.3125 313.75 L 410.9375 296.0625 Z M 410.9375 296.0625 "/>
<path style=" stroke:none;fill-rule:nonzero;fill:rgb(0%,0%,0%);fill-opacity:1;" d="M 86.136719 243.960938 L 88.988281 244.683594 C 88.386719 247.015625 87.3125 248.800781 85.765625 250.035156 C 84.210938 251.261719 82.320312 251.871094 80.082031 251.871094 C 77.777344 251.871094 75.890625 251.402344 74.4375 250.464844 C 72.992188 249.515625 71.890625 248.148438 71.136719 246.363281 C 70.378906 244.566406 70.003906 242.648438 70.003906 240.601562 C 70.003906 238.367188 70.421875 236.414062 71.273438 234.742188 C 72.132812 233.078125 73.347656 231.8125 74.925781 230.953125 C 76.5 230.09375 78.234375 229.664062 80.140625 229.664062 C 82.289062 229.664062 84.089844 230.210938 85.550781 231.304688 C 87.019531 232.398438 88.039062 233.9375 88.617188 235.914062 L 85.824219 236.578125 C 85.316406 235.015625 84.585938 233.878906 83.636719 233.160156 C 82.699219 232.445312 81.511719 232.085938 80.082031 232.085938 C 78.425781 232.085938 77.046875 232.484375 75.941406 233.277344 C 74.832031 234.074219 74.050781 235.132812 73.597656 236.460938 C 73.152344 237.789062 72.933594 239.164062 72.933594 240.582031 C 72.933594 242.40625 73.191406 244 73.714844 245.367188 C 74.246094 246.734375 75.070312 247.757812 76.195312 248.433594 C 77.328125 249.097656 78.542969 249.429688 79.847656 249.429688 C 81.449219 249.429688 82.796875 248.976562 83.890625 248.0625 C 84.992188 247.140625 85.746094 245.773438 86.136719 243.960938 Z M 86.136719 243.960938 "/>
<path style=" stroke:none;fill-rule:nonzero;fill:rgb(0%,0%,0%);fill-opacity:1;" d="M 92.566406 251.5 L 92.566406 230.015625 L 95.417969 230.015625 L 95.417969 238.84375 L 106.570312 238.84375 L 106.570312 230.015625 L 109.421875 230.015625 L 109.421875 251.5 L 106.570312 251.5 L 106.570312 241.382812 L 95.417969 241.382812 L 95.417969 251.5 L 92.566406 251.5 Z M 92.566406 251.5 "/>
<path style=" stroke:none;fill-rule:nonzero;fill:rgb(0%,0%,0%);fill-opacity:1;" d="M 112.832031 253.597656 L 114.824219 253.34375 C 115.042969 254.46875 115.429688 255.273438 115.976562 255.765625 C 116.523438 256.265625 117.1875 256.507812 117.96875 256.507812 C 118.90625 256.507812 119.691406 256.191406 120.332031 255.550781 C 120.964844 254.902344 121.289062 254.101562 121.289062 253.148438 C 121.289062 252.242188 120.984375 251.488281 120.390625 250.902344 C 119.804688 250.308594 119.050781 250.003906 118.144531 250.003906 C 117.761719 250.003906 117.292969 250.082031 116.738281 250.238281 L 116.953125 248.5 C 117.078125 248.515625 117.191406 248.519531 117.285156 248.519531 C 118.113281 248.519531 118.871094 248.300781 119.550781 247.855469 C 120.222656 247.417969 120.566406 246.738281 120.566406 245.824219 C 120.566406 245.097656 120.316406 244.496094 119.824219 244.027344 C 119.324219 243.550781 118.695312 243.304688 117.929688 243.304688 C 117.15625 243.304688 116.511719 243.550781 115.996094 244.027344 C 115.488281 244.511719 115.160156 245.238281 115.019531 246.214844 L 113.046875 245.863281 C 113.28125 244.535156 113.828125 243.511719 114.6875 242.777344 C 115.546875 242.050781 116.609375 241.683594 117.890625 241.683594 C 118.757812 241.683594 119.570312 241.875 120.3125 242.25 C 121.054688 242.632812 121.621094 243.144531 122.011719 243.792969 C 122.402344 244.449219 122.597656 245.136719 122.597656 245.863281 C 122.597656 246.566406 122.40625 247.207031 122.03125 247.777344 C 121.664062 248.339844 121.113281 248.789062 120.371094 249.125 C 121.316406 249.351562 122.054688 249.808594 122.578125 250.511719 C 123.109375 251.207031 123.378906 252.066406 123.378906 253.089844 C 123.378906 254.496094 122.859375 255.699219 121.835938 256.683594 C 120.820312 257.660156 119.53125 258.148438 117.96875 258.148438 C 116.546875 258.148438 115.371094 257.730469 114.433594 256.878906 C 113.503906 256.035156 112.972656 254.941406 112.832031 253.597656 Z M 112.832031 253.597656 "/>
<path style=" stroke:none;fill-rule:nonzero;fill:rgb(0%,0%,0%);fill-opacity:1;" d="M 74.75 254.75 L 84.3125 254.75 L 84 257.5 L 75.0625 257.5 L 74.75 254.75 Z M 74.75 254.75 "/>
<path style=" stroke:none;fill-rule:nonzero;fill:rgb(0%,0%,0%);fill-opacity:1;" d="M 75.4375 260.1875 L 83.625 260.1875 L 83.3125 262.9375 L 75.75 262.9375 L 75.4375 260.1875 Z M 75.4375 260.1875 "/>
<path style=" stroke:none;fill-rule:nonzero;fill:rgb(0%,0%,0%);fill-opacity:1;" d="M 76.125 265.6875 L 82.9375 265.6875 L 82.625 268.4375 L 76.4375 268.4375 L 76.125 265.6875 Z M 76.125 265.6875 "/>
<path style=" stroke:none;fill-rule:nonzero;fill:rgb(0%,0%,0%);fill-opacity:1;" d="M 76.75 271.1875 L 82.25 271.1875 L 81.9375 273.9375 L 77.125 273.9375 L 76.75 271.1875 Z M 76.75 271.1875 "/>
<path style=" stroke:none;fill-rule:nonzero;fill:rgb(0%,0%,0%);fill-opacity:1;" d="M 77.4375 276.625 L 81.625 276.625 L 81.25 279.375 L 77.8125 279.375 L 77.4375 276.625 Z M 77.4375 276.625 "/>
<path style=" stroke:none;fill-rule:nonzero;fill:rgb(0%,0%,0%);fill-opacity:1;" d="M 78.125 282.125 L 80.9375 282.125 L 80.5625 284.875 L 78.4375 284.875 L 78.125 282.125 Z M 78.125 282.125 "/>
<path style=" stroke:none;fill-rule:nonzero;fill:rgb(0%,0%,0%);fill-opacity:1;" d="M 112.257812 365.09375 C 112.257812 361.539062 113.214844 358.757812 115.128906 356.734375 C 117.042969 354.71875 119.515625 353.707031 122.550781 353.707031 C 124.527344 353.707031 126.3125 354.1875 127.902344 355.132812 C 129.503906 356.070312 130.71875 357.394531 131.554688 359.097656 C 132.382812 360.792969 132.804688 362.710938 132.804688 364.859375 C 132.804688 367.039062 132.359375 368.980469 131.476562 370.699219 C 130.601562 372.417969 129.359375 373.722656 127.746094 374.605469 C 126.128906 375.492188 124.390625 375.933594 122.53125 375.933594 C 120.507812 375.933594 118.703125 375.445312 117.101562 374.46875 C 115.507812 373.492188 114.308594 372.160156 113.488281 370.464844 C 112.667969 368.773438 112.257812 366.984375 112.257812 365.09375 Z M 115.1875 365.152344 C 115.1875 367.730469 115.882812 369.773438 117.277344 371.265625 C 118.667969 372.75 120.414062 373.492188 122.511719 373.492188 C 124.660156 373.492188 126.421875 372.746094 127.804688 371.246094 C 129.179688 369.738281 129.875 367.601562 129.875 364.839844 C 129.875 363.097656 129.570312 361.574219 128.976562 360.269531 C 128.390625 358.957031 127.523438 357.941406 126.378906 357.222656 C 125.246094 356.507812 123.976562 356.148438 122.570312 356.148438 C 120.546875 356.148438 118.8125 356.84375 117.355469 358.21875 C 115.910156 359.601562 115.1875 361.910156 115.1875 365.152344 Z M 115.1875 365.152344 "/>
<path style=" stroke:none;fill-rule:nonzero;fill:rgb(0%,0%,0%);fill-opacity:1;" d="M 124.0625 350.875 L 126.1875 350.875 L 126.1875 313.4375 L 124.0625 313.4375 L 124.0625 350.875 Z M 124.0625 350.875 "/>
<path style=" stroke:none;fill-rule:nonzero;fill:rgb(0%,0%,0%);fill-opacity:1;" d="M 118.75 350.875 L 120.875 350.875 L 120.875 313.4375 L 118.75 313.4375 L 118.75 350.875 Z M 118.75 350.875 "/>
<path style=" stroke:none;fill-rule:nonzero;fill:rgb(0%,0%,0%);fill-opacity:1;" d="M 215.074219 368.023438 L 217.925781 368.746094 C 217.324219 371.078125 216.25 372.863281 214.703125 374.097656 C 213.148438 375.324219 211.257812 375.933594 209.019531 375.933594 C 206.714844 375.933594 204.828125 375.464844 203.375 374.527344 C 201.929688 373.578125 200.828125 372.210938 200.074219 370.425781 C 199.316406 368.628906 198.941406 366.710938 198.941406 364.664062 C 198.941406 362.429688 199.359375 360.476562 200.210938 358.804688 C 201.070312 357.140625 202.285156 355.875 203.863281 355.015625 C 205.4375 354.15625 207.171875 353.726562 209.078125 353.726562 C 211.226562 353.726562 213.027344 354.273438 214.488281 355.367188 C 215.957031 356.460938 216.976562 358 217.554688 359.976562 L 214.761719 360.640625 C 214.253906 359.078125 213.523438 357.941406 212.574219 357.222656 C 211.636719 356.507812 210.449219 356.148438 209.019531 356.148438 C 207.363281 356.148438 205.984375 356.546875 204.878906 357.339844 C 203.769531 358.136719 202.988281 359.195312 202.535156 360.523438 C 202.089844 361.851562 201.871094 363.226562 201.871094 364.644531 C 201.871094 366.46875 202.128906 368.0625 202.652344 369.429688 C 203.183594 370.796875 204.007812 371.820312 205.132812 372.496094 C 206.265625 373.160156 207.480469 373.492188 208.785156 373.492188 C 210.386719 373.492188 211.734375 373.039062 212.828125 372.125 C 213.929688 371.203125 214.683594 369.835938 215.074219 368.023438 Z M 215.074219 368.023438 "/>
<path style=" stroke:none;fill-rule:nonzero;fill:rgb(0%,0%,0%);fill-opacity:1;" d="M 221.503906 375.5625 L 221.503906 354.078125 L 224.355469 354.078125 L 224.355469 362.90625 L 235.507812 362.90625 L 235.507812 354.078125 L 238.359375 354.078125 L 238.359375 375.5625 L 235.507812 375.5625 L 235.507812 365.445312 L 224.355469 365.445312 L 224.355469 375.5625 L 221.503906 375.5625 Z M 221.503906 375.5625 "/>
<path style=" stroke:none;fill-rule:nonzero;fill:rgb(0%,0%,0%);fill-opacity:1;" d="M 241.769531 377.664062 L 243.761719 377.410156 C 243.980469 378.53125 244.367188 379.335938 244.914062 379.832031 C 245.460938 380.328125 246.125 380.574219 246.90625 380.574219 C 247.84375 380.574219 248.628906 380.253906 249.269531 379.617188 C 249.902344 378.964844 250.226562 378.164062 250.226562 377.214844 C 250.226562 376.304688 249.921875 375.554688 249.328125 374.96875 C 248.742188 374.371094 247.988281 374.070312 247.082031 374.070312 C 246.699219 374.070312 246.230469 374.148438 245.675781 374.304688 L 245.890625 372.566406 C 246.015625 372.578125 246.128906 372.585938 246.222656 372.585938 C 247.050781 372.585938 247.808594 372.363281 248.488281 371.921875 C 249.160156 371.480469 249.503906 370.800781 249.503906 369.890625 C 249.503906 369.160156 249.253906 368.5625 248.761719 368.09375 C 248.261719 367.613281 247.632812 367.371094 246.867188 367.371094 C 246.09375 367.371094 245.449219 367.613281 244.933594 368.09375 C 244.425781 368.574219 244.097656 369.304688 243.957031 370.28125 L 241.984375 369.929688 C 242.21875 368.601562 242.765625 367.574219 243.625 366.84375 C 244.484375 366.113281 245.546875 365.75 246.828125 365.75 C 247.695312 365.75 248.507812 365.9375 249.25 366.316406 C 249.992188 366.695312 250.558594 367.207031 250.949219 367.859375 C 251.339844 368.511719 251.535156 369.199219 251.535156 369.929688 C 251.535156 370.632812 251.34375 371.269531 250.96875 371.84375 C 250.601562 372.402344 250.050781 372.851562 249.308594 373.191406 C 250.253906 373.414062 250.992188 373.875 251.515625 374.578125 C 252.046875 375.269531 252.316406 376.128906 252.316406 377.15625 C 252.316406 378.5625 251.796875 379.761719 250.773438 380.75 C 249.757812 381.726562 248.46875 382.214844 246.90625 382.214844 C 245.484375 382.214844 244.308594 381.792969 243.371094 380.945312 C 242.441406 380.097656 241.910156 379.003906 241.769531 377.664062 Z M 241.769531 377.664062 "/>
<path style=" stroke:none;fill-rule:nonzero;fill:rgb(0%,0%,0%);fill-opacity:1;" d="M 213.1875 350.875 L 203.625 350.875 L 207.3125 315.5625 L 208.4375 315 L 209.5625 315.5625 L 213.1875 350.875 Z M 213.1875 350.875 "/>
<path style=" stroke:none;fill-rule:nonzero;fill:rgb(0%,0%,0%);fill-opacity:1;" d="M 241.195312 241.03125 C 241.195312 237.476562 242.152344 234.695312 244.066406 232.671875 C 245.980469 230.65625 248.453125 229.644531 251.488281 229.644531 C 253.464844 229.644531 255.25 230.125 256.839844 231.070312 C 258.441406 232.007812 259.65625 233.332031 260.492188 235.035156 C 261.320312 236.730469 261.742188 238.648438 261.742188 240.796875 C 261.742188 242.976562 261.296875 244.917969 260.414062 246.636719 C 259.539062 248.355469 258.296875 249.660156 256.683594 250.542969 C 255.066406 251.429688 253.328125 251.871094 251.46875 251.871094 C 249.445312 251.871094 247.640625 251.382812 246.039062 250.40625 C 244.445312 249.429688 243.246094 248.097656 242.425781 246.402344 C 241.605469 244.710938 241.195312 242.921875 241.195312 241.03125 Z M 244.125 241.089844 C 244.125 243.667969 244.820312 245.710938 246.214844 247.203125 C 247.605469 248.6875 249.351562 249.429688 251.449219 249.429688 C 253.597656 249.429688 255.359375 248.683594 256.742188 247.183594 C 258.117188 245.675781 258.8125 243.539062 258.8125 240.777344 C 258.8125 239.035156 258.507812 237.511719 257.914062 236.207031 C 257.328125 234.894531 256.460938 233.878906 255.316406 233.160156 C 254.183594 232.445312 252.914062 232.085938 251.507812 232.085938 C 249.484375 232.085938 247.75 232.78125 246.292969 234.15625 C 244.847656 235.539062 244.125 237.847656 244.125 241.089844 Z M 244.125 241.089844 "/>
<path style=" stroke:none;fill-rule:nonzero;fill:rgb(0%,0%,0%);fill-opacity:1;" d="M 247.6875 291.75 L 249.8125 291.75 L 249.8125 254.75 L 247.6875 254.75 L 247.6875 291.75 Z M 247.6875 291.75 "/>
<path style=" stroke:none;fill-rule:nonzero;fill:rgb(0%,0%,0%);fill-opacity:1;" d="M 253 291.75 L 255.125 291.75 L 255.125 254.75 L 253 254.75 L 253 291.75 Z M 253 291.75 "/>
<path style=" stroke:none;fill-rule:nonzero;fill:rgb(0%,0%,0%);fill-opacity:1;" d="M 343.949219 243.960938 L 346.800781 244.683594 C 346.199219 247.015625 345.125 248.800781 343.578125 250.035156 C 342.023438 251.261719 340.132812 251.871094 337.894531 251.871094 C 335.589844 251.871094 333.703125 251.402344 332.25 250.464844 C 330.804688 249.515625 329.703125 248.148438 328.949219 246.363281 C 328.191406 244.566406 327.816406 242.648438 327.816406 240.601562 C 327.816406 238.367188 328.234375 236.414062 329.085938 234.742188 C 329.945312 233.078125 331.160156 231.8125 332.738281 230.953125 C 334.3125 230.09375 336.046875 229.664062 337.953125 229.664062 C 340.101562 229.664062 341.902344 230.210938 343.363281 231.304688 C 344.832031 232.398438 345.851562 233.9375 346.429688 235.914062 L 343.636719 236.578125 C 343.128906 235.015625 342.398438 233.878906 341.449219 233.160156 C 340.511719 232.445312 339.324219 232.085938 337.894531 232.085938 C 336.238281 232.085938 334.859375 232.484375 333.753906 233.277344 C 332.644531 234.074219 331.863281 235.132812 331.410156 236.460938 C 330.964844 237.789062 330.746094 239.164062 330.746094 240.582031 C 330.746094 242.40625 331.003906 244 331.527344 245.367188 C 332.058594 246.734375 332.882812 247.757812 334.007812 248.433594 C 335.140625 249.097656 336.355469 249.429688 337.660156 249.429688 C 339.261719 249.429688 340.609375 248.976562 341.703125 248.0625 C 342.804688 247.140625 343.558594 245.773438 343.949219 243.960938 Z M 343.949219 243.960938 "/>
<path style=" stroke:none;fill-rule:nonzero;fill:rgb(0%,0%,0%);fill-opacity:1;" d="M 350.378906 251.5 L 350.378906 230.015625 L 353.230469 230.015625 L 353.230469 238.84375 L 364.382812 238.84375 L 364.382812 230.015625 L 367.234375 230.015625 L 367.234375 251.5 L 364.382812 251.5 L 364.382812 241.382812 L 353.230469 241.382812 L 353.230469 251.5 L 350.378906 251.5 Z M 350.378906 251.5 "/>
<path style=" stroke:none;fill-rule:nonzero;fill:rgb(0%,0%,0%);fill-opacity:1;" d="M 370.644531 253.597656 L 372.636719 253.34375 C 372.855469 254.46875 373.242188 255.273438 373.789062 255.765625 C 374.335938 256.265625 375 256.507812 375.78125 256.507812 C 376.71875 256.507812 377.503906 256.191406 378.144531 255.550781 C 378.777344 254.902344 379.101562 254.101562 379.101562 253.148438 C 379.101562 252.242188 378.796875 251.488281 378.203125 250.902344 C 377.617188 250.308594 376.863281 250.003906 375.957031 250.003906 C 375.574219 250.003906 375.105469 250.082031 374.550781 250.238281 L 374.765625 248.5 C 374.890625 248.515625 375.003906 248.519531 375.097656 248.519531 C 375.925781 248.519531 376.683594 248.300781 377.363281 247.855469 C 378.035156 247.417969 378.378906 246.738281 378.378906 245.824219 C 378.378906 245.097656 378.128906 244.496094 377.636719 244.027344 C 377.136719 243.550781 376.507812 243.304688 375.742188 243.304688 C 374.96875 243.304688 374.324219 243.550781 373.808594 244.027344 C 373.300781 244.511719 372.972656 245.238281 372.832031 246.214844 L 370.859375 245.863281 C 371.09375 244.535156 371.640625 243.511719 372.5 242.777344 C 373.359375 242.050781 374.421875 241.683594 375.703125 241.683594 C 376.570312 241.683594 377.382812 241.875 378.125 242.25 C 378.867188 242.632812 379.433594 243.144531 379.824219 243.792969 C 380.214844 244.449219 380.410156 245.136719 380.410156 245.863281 C 380.410156 246.566406 380.21875 247.207031 379.84375 247.777344 C 379.476562 248.339844 378.925781 248.789062 378.183594 249.125 C 379.128906 249.351562 379.867188 249.808594 380.390625 250.511719 C 380.921875 251.207031 381.191406 252.066406 381.191406 253.089844 C 381.191406 254.496094 380.671875 255.699219 379.648438 256.683594 C 378.632812 257.660156 377.34375 258.148438 375.78125 258.148438 C 374.359375 258.148438 373.183594 257.730469 372.246094 256.878906 C 371.316406 256.035156 370.785156 254.941406 370.644531 253.597656 Z M 370.644531 253.597656 "/>
<path style=" stroke:none;fill-rule:nonzero;fill:rgb(0%,0%,0%);fill-opacity:1;" d="M 332.5625 254.75 L 342.125 254.75 L 341.75 257.5 L 332.875 257.5 L 332.5625 254.75 Z M 332.5625 254.75 "/>
<path style=" stroke:none;fill-rule:nonzero;fill:rgb(0%,0%,0%);fill-opacity:1;" d="M 333.1875 260.1875 L 341.4375 260.1875 L 341.0625 262.9375 L 333.5625 262.9375 L 333.1875 260.1875 Z M 333.1875 260.1875 "/>
<path style=" stroke:none;fill-rule:nonzero;fill:rgb(0%,0%,0%);fill-opacity:1;" d="M 333.875 265.6875 L 340.75 265.6875 L 340.4375 268.4375 L 334.25 268.4375 L 333.875 265.6875 Z M 333.875 265.6875 "/>
<path style=" stroke:none;fill-rule:nonzero;fill:rgb(0%,0%,0%);fill-opacity:1;" d="M 334.5625 271.1875 L 340.0625 271.1875 L 339.75 273.9375 L 334.9375 273.9375 L 334.5625 271.1875 Z M 334.5625 271.1875 "/>
<path style=" stroke:none;fill-rule:nonzero;fill:rgb(0%,0%,0%);fill-opacity:1;" d="M 335.25 276.625 L 339.375 276.625 L 339.0625 279.375 L 335.5625 279.375 L 335.25 276.625 Z M 335.25 276.625 "/>
<path style=" stroke:none;fill-rule:nonzero;fill:rgb(0%,0%,0%);fill-opacity:1;" d="M 335.9375 282.125 L 338.75 282.125 L 338.375 284.875 L 336.25 284.875 L 335.9375 282.125 Z M 335.9375 282.125 "/>
<path style=" stroke:none;fill-rule:nonzero;fill:rgb(0%,0%,0%);fill-opacity:1;" d="M 370.070312 365.09375 C 370.070312 361.539062 371.027344 358.757812 372.941406 356.734375 C 374.855469 354.71875 377.328125 353.707031 380.363281 353.707031 C 382.339844 353.707031 384.125 354.1875 385.714844 355.132812 C 387.316406 356.070312 388.53125 357.394531 389.367188 359.097656 C 390.195312 360.792969 390.617188 362.710938 390.617188 364.859375 C 390.617188 367.039062 390.171875 368.980469 389.289062 370.699219 C 388.414062 372.417969 387.171875 373.722656 385.558594 374.605469 C 383.941406 375.492188 382.203125 375.933594 380.34375 375.933594 C 378.320312 375.933594 376.515625 375.445312 374.914062 374.46875 C 373.320312 373.492188 372.121094 372.160156 371.300781 370.464844 C 370.480469 368.773438 370.070312 366.984375 370.070312 365.09375 Z M 373 365.152344 C 373 367.730469 373.695312 369.773438 375.089844 371.265625 C 376.480469 372.75 378.226562 373.492188 380.324219 373.492188 C 382.472656 373.492188 384.234375 372.746094 385.617188 371.246094 C 386.992188 369.738281 387.6875 367.601562 387.6875 364.839844 C 387.6875 363.097656 387.382812 361.574219 386.789062 360.269531 C 386.203125 358.957031 385.335938 357.941406 384.191406 357.222656 C 383.058594 356.507812 381.789062 356.148438 380.382812 356.148438 C 378.359375 356.148438 376.625 356.84375 375.167969 358.21875 C 373.722656 359.601562 373 361.910156 373 365.152344 Z M 373 365.152344 "/>
<path style=" stroke:none;fill-rule:nonzero;fill:rgb(0%,0%,0%);fill-opacity:1;" d="M 381.875 350.875 L 384 350.875 L 384 313.4375 L 381.875 313.4375 L 381.875 350.875 Z M 381.875 350.875 "/>
<path style=" stroke:none;fill-rule:nonzero;fill:rgb(0%,0%,0%);fill-opacity:1;" d="M 376.5625 350.875 L 378.6875 350.875 L 378.6875 313.4375 L 376.5625 313.4375 L 376.5625 350.875 Z M 376.5625 350.875 "/>
<path style="fill:none;stroke-width:34;stroke-linecap:butt;stroke-linejoin:miter;stroke:rgb(0%,0%,0%);stroke-opacity:1;stroke-miterlimit:10;" d="M 5033.875 1490 L 5185 1490 L 5185 3900 L 5033.875 3900 " transform="matrix(0.0625,0,0,0.0625,-51.25,-85)"/>
<path style="fill:none;stroke-width:34;stroke-linecap:butt;stroke-linejoin:miter;stroke:rgb(0%,0%,0%);stroke-opacity:1;stroke-miterlimit:10;" d="M 3246.125 3900 L 3095 3900 L 3095 1490 L 3246.125 1490 " transform="matrix(0.0625,0,0,0.0625,-51.25,-85)"/>
<path style="fill:none;stroke-width:34;stroke-linecap:butt;stroke-linejoin:miter;stroke:rgb(0%,0%,0%);stroke-opacity:1;stroke-miterlimit:10;" d="M 5023.875 5040 L 5175 5040 L 5175 7450 L 5023.875 7450 " transform="matrix(0.0625,0,0,0.0625,-51.25,-85)"/>
<path style="fill:none;stroke-width:34;stroke-linecap:butt;stroke-linejoin:miter;stroke:rgb(0%,0%,0%);stroke-opacity:1;stroke-miterlimit:10;" d="M 3236.125 7450 L 3085 7450 L 3085 5040 L 3236.125 5040 " transform="matrix(0.0625,0,0,0.0625,-51.25,-85)"/>
<path style=" stroke:none;fill-rule:nonzero;fill:rgb(0%,0%,0%);fill-opacity:1;" d="M 276.171875 380.625 L 276.171875 368.964844 L 277.949219 368.964844 L 277.949219 370.625 C 278.808594 369.335938 280.042969 368.691406 281.660156 368.691406 C 282.363281 368.691406 283.007812 368.824219 283.59375 369.082031 C 284.1875 369.332031 284.632812 369.664062 284.921875 370.078125 C 285.21875 370.484375 285.429688 370.96875 285.546875 371.523438 C 285.609375 371.890625 285.644531 372.535156 285.644531 373.457031 L 285.644531 380.625 L 283.671875 380.625 L 283.671875 373.535156 C 283.671875 372.730469 283.59375 372.125 283.4375 371.71875 C 283.289062 371.320312 283.015625 370.996094 282.617188 370.761719 C 282.226562 370.527344 281.765625 370.410156 281.25 370.410156 C 280.398438 370.410156 279.671875 370.679688 279.0625 371.210938 C 278.445312 371.75 278.144531 372.765625 278.144531 374.257812 L 278.144531 380.625 L 276.171875 380.625 Z M 276.171875 380.625 "/>
<path style=" stroke:none;fill-rule:nonzero;fill:rgb(0%,0%,0%);fill-opacity:1;" d="M 277.421875 158.125 L 277.421875 146.464844 L 279.199219 146.464844 L 279.199219 148.125 C 280.058594 146.835938 281.292969 146.191406 282.910156 146.191406 C 283.613281 146.191406 284.257812 146.324219 284.84375 146.582031 C 285.4375 146.832031 285.882812 147.164062 286.171875 147.578125 C 286.46875 147.984375 286.679688 148.46875 286.796875 149.023438 C 286.859375 149.390625 286.894531 150.035156 286.894531 150.957031 L 286.894531 158.125 L 284.921875 158.125 L 284.921875 151.035156 C 284.921875 150.230469 284.84375 149.625 284.6875 149.21875 C 284.539062 148.820312 284.265625 148.496094 283.867188 148.261719 C 283.476562 148.027344 283.015625 147.910156 282.5 147.910156 C 281.648438 147.910156 280.921875 148.179688 280.3125 148.710938 C 279.695312 149.25 279.394531 150.265625 279.394531 151.757812 L 279.394531 158.125 L 277.421875 158.125 Z M 277.421875 158.125 "/>
</g>
</g>
</svg>
